<?xml version="1.0" encoding="UTF-8"?>
<svg id="BigFace" data-name="Layer 2" xmlns="http://www.w3.org/2000/svg" viewBox="0 0 197.28 133.83">
  <g id="animal">
    <path id="nose" d="m87.46,98.67c-1.92.7-3.54,1.43-5.23,1.83-.56.13-1.32-.58-1.99-.91.39-.72.62-1.65,1.21-2.13,1.09-.9,2.68-1.32,3.53-2.37.79-.98,1.25-2.53,1.2-3.81-.06-1.57.36-2.18,1.85-2.25,1.52-.08,3.08-.47,4.55-.26.97.14,1.83,1.09,2.74,1.68-.75.85-1.37,1.92-2.3,2.47-.76.46-1.89.31-3.03.46.13,2.81,2.3,3.95,4.39,5.14.7.4,1.63.51,2.18,1.03.74.71,1.21,1.69,1.8,2.55-.96.5-2.19,1.66-2.85,1.39-2.46-1-4.74-2.43-7.05-3.78-.51-.3-.85-.88-1-1.05h0Z"/>
    <path id="face" d="m88.85,21.47c9.17-1.32,18.35-2.73,27.12,2.92.89-1.97,1.73-3.81,2.55-5.66,4.63-10.56,15.51-15.18,26.73-12.06,11.44,3.19,16.31,13.07,17.01,22.45.27,3.59,1.35,5.74,4.34,7.84,11.25,7.9,20.17,17.92,25.84,30.59,12.77,28.52-.48,56.19-30.78,63.96-17.21,4.41-33.97,2.27-50.35-4.2-1.53-.61-3.51-.7-5.14-.36-11.75,2.45-23.44,2.33-34.96-1.03-2.79-.81-5.22-2.79-7.88-4.11-.88-.44-1.99-.81-2.92-.68-10.37,1.43-20.65,1.33-30.63-2.2C13.65,113.22,3.02,102.53.44,85.1c-1.34-9.04.49-17.71,4.41-25.91,7.31-15.29,19.08-26.05,34.3-33.13,1.9-.88,3.07-1.6,2.51-3.88-.18-.75,0-1.63.19-2.41C44.2,9.44,52.94,1.68,63.45.26c4.64-.62,9.03-.17,13.29,1.69,7.39,3.23,11.12,8.98,11.61,16.94.04.72.11,1.44.2,2.16.02.15.19.28.3.42Zm23.29,7.51l.08.09c-5.74-4.69-12.34-3.27-18.81-3.05-.43,4.37-.86,8.33-1.2,12.29-.13,1.5-.12,3.19-2.13,3.11-1.88-.07-1.9-1.75-1.73-3.1.45-3.63,1.04-7.23,1.48-10.23-1.29.32-3.54,1.56-4.34.93-1.22-.95-1.64-3.15-2-4.9-.43-2.03-.3-4.17-.64-6.22-.79-4.72-3-8.49-7.5-10.66-12.77-6.18-28.04,1.55-29.5,17.61-.1,1.08-.68,2.67-1.49,3.06-10.03,4.78-18.92,11.07-26.2,19.5-7.42,8.61-12.35,18.43-12.99,29.9-.75,13.63,5.81,26.92,21.05,34.19,11.06,5.27,22.68,5.73,34.59,4.13,1.48-.2,3.25.47,4.63,1.21,2.01,1.08,3.61,3.11,5.7,3.83,10.82,3.72,21.89,3.72,32.98,1.29,3.08-.68,5.5-.7,8.8.65,14.43,5.87,29.5,8.16,44.98,4.49,12.31-2.92,22.63-8.96,28.98-20.3,6.76-12.07,5.6-24.48.35-36.68-5.78-13.42-15.59-23.47-27.63-31.44-2.67-1.77-5.56-3.18-3.12-7.1.12-.2.03-.53.03-.81.16-8.23-5.32-16.05-13.07-18.66-8.24-2.77-16.57.86-19.93,8.76-1.24,2.92-2.27,5.92-3.42,8.87-1.14,2.89-3.17,3.31-5.45,1.21-.78-.72-1.66-1.34-2.49-2v.03Zm.07.09c-.81.6-2.26,1.14-2.33,1.81-.51,4.84-.83,9.7-.94,14.56-.02.72,1.32,1.91,2.18,2.06.58.1,2.05-1.23,2.04-1.91-.07-5.55,1.04-11.19-1.04-16.61l.08.09h.01Zm-8.54-.55c-.38-.63-.77-1.25-1.15-1.88-.6.42-1.62.76-1.73,1.29-.8,3.94-1.55,7.91-1.98,11.9-.09.87,1.13,1.88,1.75,2.82.67-.88,1.83-1.72,1.92-2.66.39-3.75.45-7.54.64-11.32.19-.05.37-.1.56-.15h0Z"/>
    <path id="eyes" d="m116.5,75.61c.09-2.71.51-4.58,2.77-4.35.98.1,2.45,1.43,2.59,2.37.29,1.93-1.15,3.29-3.07,3.34-.88.02-1.78-1.03-2.29-1.36Zm-42-8.3c-.92-.55-1.82-1.48-2.77-1.56-2.11-.17-2.75,1.66-2.69,3.23.03.77,1.73,2.25,2.13,2.08,1.29-.53,2.33-1.68,3.47-2.59-.05-.39-.1-.78-.15-1.17h.01Z"/>
  </g>
</svg>