<?xml version="1.0" encoding="UTF-8"?>
<svg id="DrNut" data-name="Layer 2" xmlns="http://www.w3.org/2000/svg" viewBox="0 0 141.18 181.45" height="120px">

<style>
 #DrNut:hover { fill: red ; transform: scale(0.5);}
 
</style>

<script>
    let theReal= document.querySelector ("#DrNut");

    function logMyId() {
       console.log('clicked on this element:', this.id);}

    theReal.addEventListener('click', logMyId);
    </script>
    
  <g id="Mypeak">
    <path id="faceHat" d="m8.74,73.92c-6.36-3.45-8.09-8.94-7.72-15.51.06-1.08-.72-2.18-.85-3.3-.15-1.34-.33-2.81.08-4.04,2.47-7.51,6.82-13.61,13.33-18.29,9.42-6.78,19.85-11.06,31.12-13.5,4.22-.91,8.41-1.95,12.61-2.92.41-9.22,5.33-14.68,14.58-16.18,6.07-.98,10.23,2.13,11.32,8.65.39,2.34.57,4.75.56,7.12,0,1.64.62,2.35,2.11,2.78,4.75,1.36,9.48,2.81,14.21,4.24,8,2.41,15.02,6.42,21.17,12.15,3.87,3.61,8.19,6.73,12.36,10.01,7.28,5.72,8.25,14.13,6.01,21.82-1.11,3.83-4.29,6.16-7.83,8.32.41.86.78,1.71,1.21,2.54,13.58,26.71,10,58.87-9,80.75-23.08,26.58-62.87,30.59-92.13,8.99-17.87-13.19-27.86-31.12-30.35-53.2-1.51-13.42.74-26.23,6.38-38.47.26-.55.47-1.13.82-1.95h.01Zm.54,13.6c-.3,1.09-.61,2.09-.84,3.1-6.39,27.49,4.95,56.75,28.26,72.93,22.44,15.58,51.18,15.77,72.29.48.88-.64,1.72-1.34,3.01-2.35-2.33-.31-3.97-.52-5.62-.76-5.18-.75-9.68-2.76-12.85-7.11-5.24-7.2-8.38-15.37-10.17-23.98-2.14-10.3-1.49-20.76-.73-31.17.21-2.87.43-5.74.67-9.04-24.95,3.23-49.44,1.72-74.02-2.09h0Zm94.72-14.87c8.34-.84,16.1-1.62,23.87-2.41,2.99-.3,5.59-2.51,6.45-5.43,1.66-5.62-.2-11.59-4.73-15.25-3.44-2.78-7.07-5.35-10.25-8.4-6.78-6.5-14.57-11.11-23.57-13.71-3.73-1.08-7.46-2.17-11.18-3.3-9.22-2.8-18.77-3.09-28.09-1.91-10.3,1.3-20.48,3.9-29.87,8.74-6.83,3.52-13.05,7.57-16.93,14.65-2.56,4.67-3.7,9.54-3.78,14.69-.07,4.47,2.22,6.71,6.33,8.57,2.83,1.28,5.5.77,8.28.8,8.22.08,16.44.15,24.66.35,6.45.16,12.9.5,19.34.79,13.32.6,26.65,1.22,39.46,1.81h0ZM62.06,16.47h16.75c-.58-3.09-.96-6.12-1.76-9.02-.58-2.11-2.4-2.82-4.46-2.1-2.33.81-4.71,1.62-6.83,2.83-2.91,1.66-4.36,4.29-3.71,8.29h.01Z"/>
    <path id="eye" d="m36.18,118.01c0,2.39-1.93,4.14-4.55,4.11-2.22-.02-3.67-1.58-3.69-3.95-.01-2.56,1.5-4.02,4.17-4.01,2.52.01,4.06,1.47,4.07,3.85Z"/>
    <path d="m103.66,52.48c-.42,1.97-.73,3.97-1.31,5.89-.51,1.68-1.83,2.97-3.56,2.15-.93-.44-1.37-2.11-1.8-3.3-.21-.6.04-1.4.19-2.08,1.12-5.13-.76-9.14-4.59-12.43-1.22-1.05-2.75-2.2-1.48-3.92,1.35-1.82,3.21-1,4.74-.03,5,3.16,7.54,7.73,7.81,13.72Z"/>
    <path d="m24.44,50.05c.08-5.2,1.92-10.07,6.68-13.53.57-.41,1.16-1.02,1.79-1.07.88-.07,2.11,0,2.59.55.41.46.22,1.79-.14,2.53-.48,1.01-1.32,1.87-2.08,2.73-2.05,2.28-2.89,5.01-3.07,8-.04.62-.05,1.24-.17,1.85-.38,1.89-.86,3.9-3.37,3.56-2.33-.32-2.36-2.27-2.23-4.61h0Z"/>
    <path d="m64.52,47.59c-.61,2.08-1.03,4.26-1.94,6.21-.35.75-1.94,1.51-2.72,1.31-.74-.19-1.47-1.57-1.65-2.53-.21-1.16.12-2.44.28-3.66.38-2.97-.19-5.51-2.64-7.58-.69-.59-.62-2.08-.9-3.16,1.04-.16,2.18-.69,3.09-.43,3.91,1.15,6.18,4.91,6.48,9.84Z"/>
  </g>
</svg>