<?xml version="1.0" encoding="UTF-8"?>
<svg id="rec" data-name="Layer 2" xmlns="http://www.w3.org/2000/svg" viewBox="0 0 385.84 394.36" height="110px">
<style>
 #rec:hover { transform: rotate(90deg); transform-origin: center;}
  #nuts:hover { fill: brown;} 
  #typo:hover { fill: brown;}
</style>

<script>
    let theReal= document.querySelector ("#rec");

    function logMyId() {
       console.log('clicked on this element:', this.id);}

    theReal.addEventListener('click', logMyId);
    </script>
  <g id="threeNuts">
    <path id="rec" d="m384.87,210.4c-.3,48.85-.7,112.18-1.1,175.51-.03,5.5-.74,6.16-6.37,6.19-65.04.4-130.09.81-195.13,1.22-55.32.35-110.65.7-165.97,1.03-3.27.02-6.54-.11-9.81-.1-2.25,0-3.35-1.18-3.56-3.28-.12-1.26-.11-2.54-.12-3.81-.28-35.98-.55-71.96-.83-107.94-.32-41.25-.67-82.5-.98-123.75C.64,109.32.33,63.16,0,17.01-.06,7.21.41,8.42,8.35,8.22c19.61-.5,39.22-1.11,58.83-1.57,38.41-.9,76.83-1.76,115.24-2.58,22.52-.48,45.05-.85,67.57-1.28,24.43-.46,48.86-.9,73.29-1.42,18.98-.4,37.95-.92,56.93-1.36,4.92-.11,5.64.63,5.62,5.65-.3,63.42-.6,126.84-.97,204.74ZM8.28,388.86c1.1,0,1.9,0,2.7,0,11.99-.12,23.98-.27,35.97-.36,70.31-.54,140.62-1.08,210.92-1.61,38.88-.29,77.76-.62,116.64-.8,2.88-.01,3.41-.94,3.42-3.58.18-39.88.48-79.77.73-119.65.45-73.59.88-147.18,1.35-220.77.07-11.27.21-22.53.46-33.79.05-2.22-.66-2.88-2.79-2.69-2.53.23-5.08.23-7.62.28-28.69.55-57.39,1.08-86.08,1.65-25.43.51-50.85,1.08-76.28,1.62-25.7.55-51.4,1.16-77.1,1.62-38.51.69-77.02,1.28-115.52,1.89-3.33.05-6.66,0-10.05,0,1.09,125.49,2.18,250.64,3.27,376.18Z"/>
    <path id="typo" d="m46.76,337.85c0-4.9.03-9.79-.02-14.69-.02-1.98.8-3.21,2.64-3.96,5.68-2.32,11.57-3.8,17.7-3.81,12.07-.02,20.57,6.36,26.71,16.05,3.53,5.57,1.88,12.77-3.45,18.43-5.43,5.76-12.18,9.48-19.74,11.5-4.52,1.2-9.25,1.64-13.91,2.29-7.02.97-8.91-2.46-10.26-8.75-1.18-5.45-.25-11.36-.25-17.07.19,0,.38,0,.57,0Zm9.97,16.01c7.43-1.34,14.26-3.11,20.18-7.22,2.35-1.63,4.48-3.66,6.4-5.78,1.49-1.64,1.64-3.72.42-5.8-5.35-9.11-19.16-13.68-28.89-9.67.63,9.44,1.25,18.82,1.89,28.47Zm150.79-10.28c-4.29-5.27-8.5-10.6-12.86-15.82-1.59-1.9-3.29-3.86-5.33-5.21-4.13-2.73-6.3-1.69-6.71,3.32-.73,8.86-1.2,17.75-1.55,26.64-.1,2.4.37,4.91,1.05,7.23.77,2.66,3.16,3.96,5.71,3.58,2.73-.41,4.13-2.2,4.47-4.78.18-1.32-.08-2.71-.17-4.06-.27-4.11-.55-8.22-.83-12.33.24-.07.48-.14.72-.22.74.98,1.44,1.99,2.21,2.94,5.33,6.58,10.8,12.98,18.38,17.18,4,2.21,7.78.36,8.22-4.23.08-.81.05-1.63.01-2.45-.26-5.99-.5-11.98-.82-17.96-.26-4.71-.53-9.43-.99-14.13-.3-3.03-1.95-4.77-4.07-4.6-2.71.21-3.63,2.22-3.91,4.51-.38,3.06-.59,6.15-.77,9.23-.24,4.13-.39,8.28-.6,13.08-1.09-.96-1.7-1.37-2.15-1.91Zm42.3,10.72c-1.01-2.28-2.32-4.47-2.95-6.85-.83-3.14-1.25-6.41-1.64-9.65-.58-4.77-.85-9.59-1.59-14.33-.17-1.07-1.76-2.67-2.71-2.67-1.2,0-2.58,1.19-3.54,2.2-.6.63-.73,1.87-.76,2.84-.22,6.79-.64,13.59-.45,20.38.15,5.33,1.99,10.34,5.24,14.67,4.09,5.45,9.99,6.35,15.54,2.39,4.17-2.98,7.03-7.03,9.24-11.6.41-.84.85-1.66,1.33-2.6,1.5,1.69,2.65,3.23,4.05,4.49,2.24,2.01,5.17,2.2,7.28.71,2.21-1.56,2.9-4.45,1.63-7.33-.51-1.15-1.3-2.18-1.91-3.29-1.57-2.86-3.31-5.65-4.6-8.63-.99-2.3-1.43-4.85-2.05-7.31-.82-3.21-3.02-5.07-5.94-4.92-2.76.14-4.77,2.13-5.29,5.31-.12.71,0,1.47-.17,2.17-1.22,5.37-2.09,10.87-3.87,16.05-1.03,3-3.54,5.49-5.38,8.21-.48-.08-.96-.15-1.44-.23Zm66.22-30.91c3.44-.69,5.49-3.03,5.24-5.91-.25-2.9-2.61-4.81-6.15-4.97-.54-.02-1.09,0-1.63.02-8.33.33-16.67.67-25,1.01-3.44.14-5.39,1.48-5.64,3.93-.27,2.6,1.36,4.61,4.79,5.25,3.29.61,6.64.93,9.98,1.2,3.58.29,3.62.21,3.64,3.9.06,10.09.52,20.14,2.92,29.99.44,1.81,1.19,3.65,2.23,5.18,1.31,1.94,3.4,2.7,5.76,2.02,2.45-.71,3.77-2.48,3.95-4.97.09-1.25-.09-2.53-.31-3.77-.68-3.84-1.63-7.64-2.12-11.5-.87-6.81-1.49-13.65-2.24-20.69,1.9-.28,3.25-.42,4.58-.69Zm-207.94,8.95c-.54-2.2-1.55-4.32-4.35-3.97-2.88.36-3.11,2.68-3.02,4.96.23,5.44.43,10.89.84,16.32.25,3.25.76,6.49,1.41,9.69.48,2.36,2.13,3.79,4.62,3.9,2.62.13,4.28-1.29,5.13-3.66.43-1.19.63-2.46.94-3.69,1.14-4.45,2.3-5.46,6.92-5.91,1.98-.2,4-.15,5.96-.47,2.16-.36,3.61-1.7,3.85-3.99.23-2.27-.83-3.96-2.88-4.75-1.49-.58-3.21-1.13-4.74-.94-4.17.5-8.29,1.4-12.66,2.18-.6-2.93-1.21-6.32-2.02-9.66Zm36.98,32.41c.78-1.09,2.02-2.11,2.22-3.3.29-1.73-1.08-3.11-2.78-2.77-1.07.21-2.56,1.63-2.65,2.62-.1,1.07,1.2,2.27,1.89,3.42.44.01.88.03,1.32.04Z"/>
    <path id="nuts" d="m198.1,106.24c15.67-1.25,31.1,15.2,28.2,31.45-.96,5.35-1.51,10.76-2.44,16.11-.32,1.85-1.09,3.65-1.85,5.38-4.77,10.85-2.82,17.1,4.1,24.06,6.06,6.1,10.42,13.11,13.11,21.07,1.67,4.93,2.57,10.24,2.99,15.44.69,8.57,1.16,17.18-.97,25.73-2.37,9.48-7.92,16.48-16.12,21.37-13.61,8.11-28.1,13.51-44.23,13.49-3.95,0-7.51-1.09-10.81-3.18-3.07-1.94-6.29-3.69-9.1-5.96-2.56-2.07-5.31-4.37-6.85-7.18-6.11-11.15-9.18-23-7.02-35.89,1.07-6.41,4.24-11.2,9.35-15.04,6.46-4.86,10.55-11.38,12.69-19.17,2.95-10.72.48-19.71-8.32-26.77-4.63-3.71-6.37-9.11-8.35-14.38-6.5-17.28,4.47-35.06,16.07-40.01,6.66-2.84,14.05-4.04,21.17-5.72,2.71-.64,5.58-.56,8.38-.81Zm-46.36,130c.33,2.79.33,5.67,1.07,8.35,1.2,4.36,2.84,8.6,4.37,12.86,1.59,4.45,4.4,7.86,8.63,10.1,1.84.97,3.63,2.09,5.25,3.39,4.08,3.26,8.67,4.17,13.78,3.84,12.59-.8,24.05-5.21,35.11-10.81,9.57-4.84,15.74-12.43,17.26-23.29,1.2-8.6.5-17.1-.8-25.7-1.71-11.3-6.3-20.73-14.34-28.88-5.92-6.01-9.01-13.44-6.67-22.14.85-3.13,2.53-6.06,3.17-9.22,1.33-6.55,2.41-13.17,3.22-19.8,1.3-10.58-9.14-23.46-21.34-23.93-4.77-.18-9.67.09-14.34,1.01-5.66,1.11-11.75,2.1-16.57,4.96-14.92,8.86-19.44,25.6-9.76,41.94.43.73,1.32,1.2,2.01,1.78,5.75,4.84,11.52,9.92,13.06,17.58,3.07,15.27-2.08,28.19-13.87,37.83-6.75,5.52-9.25,11.96-9.25,20.12Zm133.26,36.77c-3.08,0-6.22.36-9.24-.07-9.94-1.39-15.74-7.98-18.97-16.79-5.2-14.19-5.37-28.24,2.84-41.63,1.8-2.94,3.46-5.97,5.14-8.98,4.15-7.44,6.32-15.13,4.03-23.75-1.83-6.91-2.61-14.14-6.7-20.27-.89-1.33-2.22-2.35-3.2-3.63-.78-1.01-1.36-2.19-1.98-3.32-.39-.69-.6-1.5-1.06-2.13-3.18-4.34-4.58-9.28-4.56-14.55.03-5.22-1.03-10.58,1.16-15.62,3.17-7.31,7.8-13.25,15.55-16.21,16.24-6.22,32.63-6.39,48.9-.53,8.72,3.14,12.31,10.73,13.3,19.36.82,7.16-.79,14.05-4.22,20.5-5.34,10.03-4.11,21.92,3.31,30.51,2.36,2.73,5.16,5.11,7.95,7.41,6.33,5.21,9.06,11.99,9.44,20.02.38,7.99-.48,16.01-2.99,23.38-5.61,16.47-13.65,31.52-30.08,40.1-7.88,4.12-17.63,6.41-28.62,6.2Zm2.89-4.99c11.16-.85,21.28-3.05,29.26-9.75,17.85-14.98,26.02-34.43,23.99-57.82-.42-4.81-2.59-9.05-6.33-12.32-1.91-1.68-3.82-3.35-5.73-5.03-12.34-10.88-13.4-26.07-7.97-38.18,2.1-4.69,3.9-9.34,4.65-14.41,1.15-7.73-3.13-19.39-13.24-22.04-7.44-1.95-14.68-3.39-22.48-2.84-7.39.53-14.57,1.15-21.39,4.37-7.17,3.39-11.64,8.97-13.33,16.5-.8,3.55-.5,7.43-.2,11.12.55,6.79,2.62,12.93,8.65,17.05,1.08.74,2.1,1.89,2.61,3.08,2.26,5.31,4.58,10.61,6.42,16.08,4.44,13.2,3.02,25.71-4.82,37.43-2.06,3.08-3.63,6.49-5.32,9.8-3.63,7.11-4.71,14.6-3.23,22.47,1.99,10.58,4.84,20.57,16.84,24.07,1.41.41,3.06.12,4.58,0,.76-.06,1.53-.79,2.21-.69,1.87.27,3.71.83,4.83,1.1ZM35.07,167.85c1.32-.27,2.08-.42,2.86-.58-5.16-6.1-8.29-13.29-9.13-21.07-1.06-9.82.69-19.06,8.38-26.43,9.64-9.24,20.89-13.76,34.31-14.08,12.33-.3,23.11,3.16,32.54,10.82,10.46,8.48,15.87,19.7,16.31,33.1.14,4.28-.99,8.59-1.44,12.89-.11,1.02.32,2.1.22,3.12-.09.92-.47,1.87-.92,2.7-1.19,2.22-2.49,4.37-3.74,6.56-.27.47-.39,1.11-.78,1.41-2.9,2.22-2.26,5.09-1.36,7.87,2.07,6.37,3.96,12.83,6.57,18.97,1.53,3.6,4.08,6.84,6.55,9.94,3.65,4.58,5.55,9.88,6.23,15.46,1.57,12.95-.83,25.15-8.51,35.96-5.75,8.09-14.32,12.06-23.3,15.26-12.4,4.41-25.17,6.15-38.3,4.92-12.43-1.16-22.07-6.12-28.13-17.91-8.68-16.87-7.52-33.19.74-49.54,3.79-7.5,6.98-15.14,7.96-23.58.96-8.19.91-16.15-4.57-23.05-.65-.82-1.41-1.56-2.49-2.76Zm4.65.02l-.46.45c.81.93,1.81,1.75,2.4,2.8,1.61,2.9,3.96,5.78,4.35,8.88.67,5.35.32,10.87-.06,16.28-.54,7.63-3.73,14.48-6.82,21.39-2.58,5.76-5.15,11.75-6.22,17.91-1.94,11.21.79,21.76,6.84,31.5,3.13,5.04,7.34,8.51,12.88,10.3,2.83.91,5.81,1.49,8.77,1.87,14.79,1.9,28.94-.86,42.54-6.57,7.78-3.27,14.44-8.07,18.05-16.12,3.76-8.37,5.52-17.12,4.36-26.26-.63-4.96-2.24-9.66-5.3-13.82-2.62-3.56-5.49-7.16-7.09-11.2-2.8-7.05-5.09-14.36-6.87-21.73-1.22-5.04-.43-10.13,3.56-14.2.92-.94,1.62-2.2,2.13-3.44,6.49-15.55,1.89-32.83-9.8-44.03-17.2-16.48-43.52-15.28-59.59-2.93-9.7,7.46-13.39,17.04-11.15,28.65,1.31,6.77,3.36,13.59,8.6,18.76.48.47.73,1.21,1.01,1.85.07.16-.13.45-.22.7-.67-.36-1.29-.7-1.9-1.03Zm160,50.84c-1.89.2-3.93.03-5.64.69-3.85,1.47-7.58,3.27-11.27,5.12-.97.49-1.76,1.6-2.29,2.61-.34.66-.07,1.64-.07,2.48.8-.08,1.8.11,2.37-.3,4.29-3.05,8.9-5.44,14.21-5.53,2.5-.04,5.03,1,7.52,1.63,1.52.39,3.35,1.05,3.96-.82.31-.94-.56-2.92-1.47-3.47-2.17-1.3-4.69-2.03-7.07-2.99-.08.19-.17.38-.25.57Zm14.07,30.42c.84-1.07,2.15-2.05,2.4-3.25.34-1.63-.96-2.62-2.66-2.61-1.77.01-3.14.95-2.96,2.72.12,1.1,1.28,2.08,1.98,3.12.41,0,.83,0,1.24.01Zm-24.11,2.33c-.92-.9-1.73-2.34-2.8-2.57-1.72-.36-3.29.64-3.1,2.7.08.85,1.07,1.62,2.1,3.07,1.61-1.36,2.7-2.28,3.8-3.2Zm-1.67-75.56c.69-.97,1.9-1.94,1.89-2.9,0-.81-1.39-2.21-2.23-2.25-.81-.05-2.33,1.23-2.4,2.04-.09.96,1.01,2.04,1.6,3.07.38.02.76.03,1.14.05Zm28.44,21.08c-.76.15-1.33,1.3-1.98,2.01.74.64,1.43,1.73,2.22,1.79.7.06,1.5-1,2.98-2.11-1.6-.9-2.51-1.83-3.21-1.69Zm-11.49-61.17c-.81.27-1.42,1.17-2.11,1.81.61.53,1.2,1.47,1.82,1.49.72.01,1.45-.79,2.75-1.59-1.24-.9-2.03-1.85-2.47-1.71Zm-14.95,6.7c-.44.6-1.24,1.21-1.22,1.8.01.54.88,1.41,1.43,1.47.53.05,1.15-.75,2.11-1.46-1.02-.8-1.67-1.3-2.32-1.81Zm105.27,6.08c-4.18,3.9-8.62,3.22-13.33,1.24-.87-.37-2.08.08-3.14.15.29,1.04.23,2.5.92,3.06,6.21,5.07,17.22,4.73,20.6-4.17-1.72-1.21-3.5-1.72-5.04-.28Zm10.59,81.79c.09.94.2,1.89.27,2.83.33,4.48.62,8.96.98,13.43.07.81.4,1.6.61,2.4.66-.59,1.47-1.08,1.94-1.8.35-.55.43-1.41.35-2.09-.52-4.11-1.05-8.22-1.73-12.31-.17-.99-.91-1.88-1.38-2.82-.34.12-.68.23-1.03.35Zm-30.5-13.24c-.16.76-.47,1.52-.45,2.27.03,1.61.3,3.21.35,4.82.07,2.25-.04,4.51.09,6.76.03.57.67,1.11,1.02,1.67.48-.44,1.37-.87,1.39-1.33.18-4.8.18-9.6-1.67-14.13-.25-.02-.49-.04-.74-.05Zm23.66-87.53c-.25,1.58.73,3,2.69,2.95,1.95-.04,2.95-1.19,3.04-3.09.09-1.9-1-2.55-3.39-2.9-.82,1.01-2.16,1.93-2.34,3.04Zm13.2,47.94c-.62,3.07,1.59,13.09,3.3,14.02.21-5.27-1.38-9.68-3.3-14.02Zm-35.57-46.02c1.05-1.05,2.56-1.93,3.02-3.2.53-1.48-.82-2.72-2.35-2.47-1.13.19-2.12,1.28-3.88,2.43,1.51,1.53,2.36,2.38,3.21,3.24Zm10.67,48.7c1.76-3.29.9-8.84-1.57-10.32.73,3.25-.3,6.8,1.57,10.32Zm-217.45-13.12c1.36-.06,2.74.02,4.07-.21,4.92-.85,9.7-2.14,12.22-7.03.48-.92-.15-2.42-.27-3.65-1.15.39-2.43.59-3.44,1.22-2.24,1.4-4.15,3.6-6.55,4.42-5.39,1.85-10.83,1.76-15.84-1.61-.52-.35-1.48-.06-2.23-.07,0,.75-.3,1.81.08,2.19,1.35,1.37,2.76,2.99,4.48,3.62,2.32.86,4.95.91,7.45,1.3.01-.06.03-.13.04-.19Zm39.08,90.89c0-1,.24-2.07-.04-2.98-.84-2.73-1.77-5.46-2.93-8.06-.25-.56-1.65-.61-2.51-.9-.02.83-.22,1.7-.03,2.48.36,1.48,1.29,2.9,1.35,4.37.13,3.69-.17,7.39-.11,11.09.02.88.81,1.74,1.25,2.62.79-.71,2.04-1.29,2.29-2.16.6-2.07.73-4.27,1.04-6.42-.1-.01-.2-.02-.3-.03Zm-35.45-39.26c-1.1-3.89-2.13-7.79-3.29-11.67-.21-.71-.86-1.28-1.3-1.92-.41.71-1.2,1.43-1.17,2.12.11,2.51.34,5.04.82,7.5.44,2.29,1.12,4.56,2,6.71.27.67,1.52,1.27,2.34,1.28.51,0,1.05-1.12,1.51-1.67-.4-1.02-.72-1.67-.91-2.36Zm-20.16,33.73c-.14.87-.56,1.79-.39,2.59.81,3.8,1.69,7.59,2.74,11.32.23.84,1.13,1.59,1.9,2.13.32.22,1.26-.06,1.62-.42.31-.31.42-1.11.26-1.57-1.46-4.26-2.98-8.51-4.52-12.74-.18-.5-.58-.93-.88-1.39l-.73.08Zm44.54-67.84c.79,3.48,1.59,6.97,2.49,10.42.15.57.82,1,1.25,1.5.6-.58,1.51-1.05,1.74-1.75,1.07-3.21-1.91-10.17-5.49-12.27,0,.96-.11,1.56.02,2.1Zm-36.05,12.5c.21.62,1.31.93,2,1.38.33-.73,1.02-1.52.92-2.19-.4-2.83-1-5.63-1.59-8.43-.1-.45-.53-.83-.81-1.23-.41.38-1.12.71-1.19,1.15-.23,1.41-.23,2.86-.33,4.52.29,1.5.46,3.22,1.01,4.81Zm35.37-66.34c-.74-1.33-2.18-2.29-3.41-3.3-.27-.22-1.16-.12-1.38.15-.24.29-.21,1.07.02,1.43,1.91,3.08,3.89,6.11,5.97,9.32,1.44-2.85.07-5.32-1.2-7.61Zm-14.27,5.98c-.74,1.02-1.93,1.98-2.07,3.08-.1.73,1.3,1.65,2.03,2.48.94-.87,2.26-1.6,2.66-2.67.24-.64-.94-1.83-1.49-2.77-.38-.04-.76-.08-1.14-.12Zm-24.48.74c-.8.07-2.2,1.54-2.07,2.12.21.94,1.4,2.24,2.25,2.3.86.06,1.81-1.21,3.48-2.47-1.75-1-2.76-2.03-3.66-1.95Z"/>
  </g>
</svg>