<?xml version="1.0" encoding="UTF-8"?>
<svg id="Layer_2" data-name="Layer 2" xmlns="http://www.w3.org/2000/svg" viewBox="0 0 341.01 359" height="120px">
  <style>
  #drWho:hover { fill: #11BBF9;}
   </style>

   <script>
    let thename= document.querySelector ("#drWho");

    function logMyId() {
       console.log('clicked on this element:', this.id);}

    thename.addEventListener('click', logMyId);
    </script>

  <g id="drWho">
    <path id="body" d="m171.35,3.34c52.85,1.08,105.7,2.16,158.55,3.25,5.78.12,7.29,1.61,7.36,7.29.74,64.49,1.5,128.99,2.21,193.48.54,48.05,1.02,96.1,1.54,144.16.06,5.86-1.5,7.5-7.33,7.49-75.74-.15-151.49-.28-227.23-.49-12.62-.03-25.23-.58-37.85-.59-19.6-.02-39.2.23-58.8.35-9.09.06-9.88-.58-9.8-9.68.33-38.7.65-77.4,1.17-116.09.75-55.86,1.61-111.73,2.57-167.59.3-17.62,1.1-35.22,1.64-52.84.03-.94-.04-2.1-.56-2.8-1.59-2.16-1.72-4.41-.62-6.67C5.37.19,7.74-.04,10.07,0c9.99.19,19.98.42,29.97.63,43.77.9,87.54,1.8,131.31,2.7Zm-46.11,159.12c-2.79.1-5.76-.31-7.26-2.96-2.66-4.71-5.73-9.48-7.02-14.62-2.28-9.06-1.62-18.44.26-27.57,2.57-12.46,8.61-23.43,15.4-34.04,5.72-8.95,13.65-14.63,23.99-17.04,22.87-5.33,44.85-3.41,65.76,7.84,11.45,6.16,19.96,14.72,23.45,27.6,3.56,13.12,4.38,26.56,3.29,39.97-1.14,13.97-5.81,26.73-14.79,37.99-8.75,10.96-12.63,23.83-11.08,37.99.67,6.12.89,12.47,4.35,17.83,7.14,11.05,17.6,18.27,29.37,23.4,5.85,2.55,12.38,3.51,18.54,5.37,11.19,3.37,21.45,8.39,29.63,17.05,3.03,3.21,5.02,6.84,5.32,11.33.29,4.26.89,8.5,1.01,12.76.36,12.62.55,25.24.81,37.86.04,2.23.06,4.46.09,6.92,8.79.01,17.18.03,25.59.04.09-1.21.22-2.01.21-2.82-.45-40.7-.92-81.4-1.36-122.1-.73-68.77-1.44-137.55-2.15-206.32-.04-3.67-.02-3.69-3.69-3.77-32.52-.64-65.03-1.27-97.55-1.91-60.31-1.19-120.62-2.39-180.93-3.58-10.81-.21-21.62-.42-32.43-.61-3.86-.07-3.87-.04-3.83,3.93.02,1.27.17,2.54.18,3.81.17,18.16.56,36.33.45,54.49-.52,85.95-1.17,171.9-1.79,257.85-.05,6.71-.15,13.41-.24,20.41,15.83.02,31.41.04,47.27.06-.21-1.49-.35-2.64-.54-3.79-2.49-14.97-2.43-29.85,1.59-44.58,4.46-16.35,13.07-29.63,28.34-37.94,7.02-3.82,13.89-7.91,20.98-11.58,5.9-3.05,10.77-7.03,13.96-12.92,2.68-4.95,5.51-9.82,7.96-14.88,1.08-2.23,1.8-4.81,1.96-7.27.27-4.22-.12-8.47-.05-12.71.18-10.73-1.59-20.97-7.19-30.32-1.03-1.71-2.24-3.35-2.97-5.19-.43-1.08-.61-3.1,0-3.59,1.63-1.33,1.75,1.01,2.62,1.65.14.11.24.27.36.4,8.18,8.64,11.96,19.11,12.64,30.81.28,4.89.61,9.81.3,14.68-.31,4.84-.72,9.87-2.31,14.38-1.94,5.51-5.1,10.61-7.85,15.83-3.59,6.83-9.11,11.59-15.92,15.15-6.91,3.62-13.58,7.72-20.43,11.46-13.25,7.23-20.96,18.61-25.05,32.84-4.37,15.21-3.87,30.51-1.19,45.89.31,1.8,1.49,1.71,2.81,1.71,6.81,0,13.63.03,20.44.04,66.68.13,133.35.27,200.03.39,4.05,0,8.1-.04,12.14-.07.11-.73.22-1.08.21-1.43-.47-17.79-.98-35.58-1.42-53.37-.11-4.39-2.05-7.66-5.2-10.64-7.98-7.56-17.67-11.89-28.08-14.27-13.16-3.01-25.2-7.96-35.63-16.63-6.41-5.33-12.68-10.95-15.36-19.07-4.05-12.29-4.91-24.96-1.59-37.58,2.38-9.06,7.26-16.92,12.72-24.5,3.14-4.37,6.07-9.14,7.89-14.17,5.79-15.98,5.13-32.48,2.47-48.94-1.51-9.34-4.74-18.11-12.76-23.89-5.04-3.63-10.5-6.82-16.1-9.51-18.28-8.81-37.3-8.99-56.58-3.89-6.81,1.8-12.38,5.66-16.49,11.41-12.09,16.91-20.34,35.14-17.61,56.56,1.05,8.24,3.14,16.38,10.04,22.35Z"/>
    <path id="hair" d="m156.18,108.5c4.09,1.25,7.96,3.73,12.05,1.9.08-3.63-.25-6.82.32-9.84.71-3.79,3.4-5.42,6.67-4.81,3.97.74,6.14,3.16,5.51,7.02-.46,2.87-1.76,5.6-2.8,8.75,3.41,4.51,9.25,5.22,16.33,1.42-1.5-4.4-2.42-8.99,2.16-12.13,2.45-1.68,5.71-1.31,7.99.43,4.16,3.18.88,7.11.33,11.01,2.5.75,5,1.46,7.47,2.27,1.53.51,3.36.94,3.03,3.17-.31,2.08-2.09,2.21-3.59,2.04-3.4-.39-6.76-1.12-10.15-1.58-1.06-.14-2.23-.04-3.26.26-1.2.35-2.31,1.03-3.46,1.58-7.72,3.67-14.66,2.12-20.92-3.28-1.21-1.05-2.09-1.14-3.56-.55-5.88,2.37-11.24,0-16.45-2.35-1.84-.83-3.2-1.04-5.02-.16-3.38,1.65-6.99,2.05-10.55.62-.91-.37-1.51-1.53-2.25-2.33.97-.44,1.97-1.3,2.89-1.23,2.97.23,5.76.08,8.53-1.74-2.34-3.74-2.9-7.63-.85-11.6,1.22-2.36,2.92-4.2,5.85-4.23,4.08-.04,6.83,3.91,5.83,8.58-.47,2.19-1.31,4.3-2.1,6.79Zm-4.5-3.5c1.26-2.44,2.22-4.5,1.06-7.02-2.7,1.7-3.03,3.72-1.06,7.02Z"/>
    <path id="arcon" d="m234.74,301.35c-1.7,4.97-3.11,9.55-4.83,14-3.3,8.52-8.23,9.38-15.83,6.28-7.99-3.26-11.67-11.14-9.59-19.57.17-.69.22-1.41.35-2.23-.64-.16-1.14-.34-1.66-.4-3.81-.47-3.22-.41-2.92-4.25.4-5.12,2.86-8.47,6.93-10.94,3.97-2.41,8.3-3.69,12.99-3.09,1.62.21,2.55-.38,3.72-1.47,1.69-1.57,3.78-2.78,5.86-3.82.8-.4,2.17-.18,3.02.26.57.3,1.03,1.55.88,2.24-.12.55-1.16,1.03-1.88,1.32-1.6.64-3.26,1.13-4.89,1.68l.11.7c1.38.64,2.73,1.38,4.15,1.92,6.47,2.48,9.23,7.85,10.87,14.03.61,2.31-.34,3.39-2.79,3.52-.81.04-1.63,0-2.45-.04-.81-.04-1.61-.12-2.05-.16Zm-14.98-1.17c0-.07,0-.14,0-.21-3.44-.08-6.89-.24-10.33-.18-.66.01-1.71.73-1.9,1.33-2.18,7.17,3.11,15.92,10.44,17.45,4,.83,5.82.08,7.41-3.62,1.5-3.49,2.76-7.1,3.94-10.72.8-2.45.12-3.25-2.5-3.48-2.35-.21-4.71-.37-7.06-.56Zm17.59-2.75c-1.48-6.68-6.08-9.46-11.52-11.35-2.44,1.69-4.17-.67-6.22-.97-4.66-.68-9.04.93-12.6,3.98-1.63,1.4-2.59,3.57-4.03,5.65,11.93.94,23.01,1.8,34.37,2.69Z"/>
    <path id="mouth" d="m168.84,192.06c-1.81-.54-5.03-1.05-7.79-2.47-2.12-1.09-3.8-3.21-5.37-5.13-.53-.65-.09-2.08-.1-3.16,1.02.28,2.43.23,3,.89,2.57,2.96,5.96,3.92,9.59,4.57,3.9.7,7.34-.36,10.55-2.49,1.05-.7,2.08-1.68,3.24-1.91,1.03-.2,2.74.13,3.21.84.47.71.18,2.69-.49,3.26-4.18,3.49-8.83,6.03-15.85,5.6Z"/>
    <path id="EYE" d="m186.33,150.23c.41-4.41,1.71-5.98,4.94-5.38,1.04.19,2.43,1.16,2.75,2.09,1.07,3.11,1.06,6.36-1.21,8.98-.86.98-2.64,1.83-3.82,1.64-.98-.16-2.03-1.82-2.44-3.03-.44-1.31-.17-2.85-.22-4.3Zm-30.14,1.58c.13,1.87.82,3.46,2.82,3.81,2.19.39,3.61-.9,4.43-2.8.38-.89.4-1.93.69-2.87.84-2.75-.46-5.62-2.92-6.37-2.26-.68-3.86.66-4.69,3.95-.15.61-.29,1.23-.48,2.02.05.65.1,1.45.16,2.26Z"/>
    <path id="nose" d="m167.71,172.31c1.66-1.33,2.8-2.24,3.94-3.15.59.95,1.65,1.89,1.66,2.85.03,1.75-.62,3.68-2.94,3.26-.83-.15-1.44-1.55-2.66-2.97Z"/>
  </g>
</svg>