<?xml version="1.0" encoding="utf-8"?>
<!-- Generator: Adobe Illustrator 27.1.0, SVG Export Plug-In . SVG Version: 6.00 Build 0)  -->
<svg version="1.1" id="Outline" xmlns="http://www.w3.org/2000/svg" xmlns:xlink="http://www.w3.org/1999/xlink" x="0px" y="0px"
	 viewBox="0 0 512 469.3" style="enable-background:new 0 0 512 469.3;" xml:space="preserve">
<path d="M405.3,0H106.7C47.8,0.1,0.1,47.8,0,106.7v256c0.1,58.9,47.8,106.6,106.7,106.7h298.7c58.9-0.1,106.6-47.8,106.7-106.7v-256
	C511.9,47.8,464.2,0.1,405.3,0z M106.7,42.7h298.7c26.1,0.1,49.6,16,59.3,40.3L301.3,246.3c-25,24.9-65.5,24.9-90.5,0L47.4,82.9
	C57.1,58.7,80.5,42.7,106.7,42.7z M405.3,426.7H106.7c-35.3,0-64-28.7-64-64v-224l137.9,137.8c41.7,41.6,109.2,41.6,150.9,0
	l137.9-137.8v224C469.3,398,440.7,426.7,405.3,426.7z"/>
</svg>
