<?xml version="1.0" encoding="UTF-8"?>
<svg id="Layer_2" data-name="Layer 2" xmlns="http://www.w3.org/2000/svg" viewBox="0 0 160.3 260.51">
  <g id="Foxlayer">
    <path id="freeLine" d="m81.4,209.7c7.4,5.2,20.1,4.5,28.9-2-.9-1.4-2.1-2.8-2.7-4.4-1.2-3.1-2.6-6.3-2.8-9.6-.3-3.7,1.4-6.9,5.2-8.3,4-1.5,7.9-1.3,11.2,1.5,4,3.3,3.3,7.7,2,11.9-.8,2.7-2.2,5.2-3.4,7.8,4.3,2.6,8.7,3.1,13.4,1.6,1.5-.5,3-1.1,4.6-1.2,1.1,0,2.3.8,3.4,1.3-.7,1.3-1.1,3.2-2.1,3.8-5.6,3-11.7,4.3-17.6,1.6-4.4-2-7.7-1.4-11.6,1.1-9.9,6.5-20.3,4.9-30.5.6-1.6-.6-2.6-1.2-4.2.1-10.6,8.8-27.2,7.4-37.3,2.2-1.4-.7-3.1-1.1-4.7-1.3-6.5-.6-13.1-.9-19.6-1.6-5.9-.6-9.7-4.6-13.1-8.9-.5-.6-.3-1.8-.5-3.1,5.2,2.6,9.8,5.7,14.8,7.1,5.1,1.4,10.7,1.2,16.8,1.8-1.2-2.3-2-3.8-2.8-5.4-1.7-3.6-2-7.3.8-10.5,3.2-3.6,7.4-5.6,12.1-4.3,1.7.4,3.5,2.4,4.1,4,2.5,6.4,1.8,12.4-3.3,17.5,8,4.6,23.1,4.1,29.8-2.8-1.4-1.6-2.8-3.1-4.2-4.8-2.8-3.5-3-8.5-.6-12,2.4-3.6,6.7-5.2,11.1-4,4.5,1.2,7,4.5,6.2,9.1-.9,3.8-2.3,7.3-3.4,11.2h0Zm-44.4.3c3.7-2.6,5.3-5.7,4.6-9.6-.3-1.5-1.5-4.1-2.2-4-2,.2-4.2,1-5.7,2.3-.9.8-1.2,3.2-.7,4.5.8,2.3,2.5,4.4,4,6.8h0Zm77-7.2h1.4c1-2.6,2.3-5.1,2.9-7.7.3-1.4-.3-3.7-1.3-4.3-1.3-.8-3.8-.9-5-.1-1.1.8-1.9,3.2-1.6,4.6.7,2.7,2.3,5,3.6,7.5h0Zm-37.5,3.8c1.1-3.4,1.9-5.8,2.5-8.3.6-2.2-.7-3.7-2.8-3.5-1.5.1-3.6.8-4.2,1.9-.7,1.3-.6,3.5,0,4.9.7,1.6,2.4,2.8,4.5,5h0Z"/>
    <path id="face" d="m136.4,76.8c1.9,12.7.4,25.3-4.1,37.1-4.8,12.5-11.5,24.1-21.7,33.2-5.1,4.5-10.3,8.8-15.7,13-5.6,4.4-12,7.3-19.1,8.1-1.7.2-3.7-1-5.5-1.7-.6-.2-1-1-1.6-1.1-13.1-3.1-23.1-11.3-32.4-20.2-7.4-7-14.4-14.5-20.6-22.6-9.9-12.8-14.7-27.4-11.2-43.8.6-2.9,1.5-5.7,2.6-8.4.7-1.8,2.3-1.6,3.6-.4,8.6,7.5,19.2,9.7,29.9,11.8,14.8,2.9,29.7,3.3,44.6,2.6,11.5-.6,23.1-1.9,33.9-6,4.3-1.6,8.1-4.3,12.2-6.5,1.2-.6,2.6-.9,3.9-1.4.4,1.2.9,2.4,1.1,3.6.3.9.1,1.8.1,2.7h0Zm-128.7-3c-.4,5.9-1.8,11.7-.8,16.8,1.5,7.3,3.7,15,7.7,21.2,10.1,15.9,23.4,29.1,38.8,39.9,5,3.5,10,7.1,16.3,8,1.1.1,2.4-.4,3.5-1,1.5-.7,2.8-2.1,4.4-2.4,1.1-.2,3.4.5,3.7,1.2,1.2,3.7,3.4,2.7,5.4,1.2,6.6-4.9,13.3-9.8,19.6-15.1,3.3-2.7,6.3-5.9,8.7-9.4,8.4-12.1,15.4-24.8,16.7-39.9.4-5.3.7-10.6,1-15.3-8.5,2.6-16.2,5.6-24.2,7.3-19.3,4.2-38.9,4.5-58.4,2-14.8-1.9-29.5-4.5-42.4-14.5h0ZM69.2,13.1c7.4.7,14.7.5,21.7,2.1,17.2,3.9,32.2,11.7,41.1,27.8,2.1,3.9,3.1,8.5,4.2,12.8.3,1.3-.6,3.2-1.4,4.5-1.3,2.1-3,4-4.6,5.8-7,7.5-16.5,10-25.9,10.5-21,1.2-42.2.6-63.1-2-10.3-1.3-20.4-4.3-29-10.7-3-2.2-4.6-4.9-4.2-8.6,1.6-15.4,9.1-26.5,23.8-32.1,9.5-3.6,18.8-7.8,29.2-8.4,1.8-.1,2.8-.9,2.9-2.9.3-4.4,2.6-8,5.6-10.9.9-.9,2.9-.7,4.4-1-.1,1.4.3,3.2-.4,4.3-1.6,2.9-4.5,5.2-4.3,8.8h0Zm-5.8,6.6c-1.7.1-3.5,0-5.1.4-8.4,2.4-16.7,4.9-25,7.5-6.3,1.9-11.5,5.7-15.1,11-2.6,3.8-4.5,8-6.2,12.3-1.5,3.8-.4,7.5,2.3,8.8,5.9,2.8,11.8,5.6,18,7.7,11.3,3.9,23.2,3.3,34.9,4,10.7.6,21.6,1,32.3.3,7.1-.5,14.2-2.6,21-4.9,3.1-1.1,5.7-4.1,7.8-6.8,1.2-1.6,1.7-4.5,1.4-6.6-1.2-7.7-5.3-14-11.3-18.8-13-10.5-27.6-16.4-44.5-15.6-4.8.2-4.7.1-5.4,4.7-.1.8-.9,2-1.6,2.1s-2.1-.6-2.4-1.3c-.6-1.3-.7-2.8-1.1-4.8h0Zm36.3,95.4c-2.1-.2-3.7-1.4-3-3.4.6-1.6,2.6-2.6,3.9-3.9,1,1.2,2.8,2.2,2.9,3.5.3,2.3-1.2,3.8-3.8,3.8h0Zm-48.1-1.9c-.2,3.2-1.3,4.8-3.6,4.4-1.2-.2-2.9-1.6-3.1-2.6-.3-2.4,1.6-3.8,3.8-3.7,1.2,0,2.2,1.4,2.9,1.9h0Zm66.7-62.6c-.4.5-.9,2-1.8,2.1-.9.2-2.4-.6-3-1.5-1-1.6-1.6-3.5-2.2-5.3-2.2-6.6-6.7-11.1-12.7-14.4-1.5-.9-2.5-2.7-3.8-4.1,1.9.2,3.9,0,5.6.6,10,3.2,14.8,11,17.5,20.5.2.4.2.9.4,2.1h0Zm-16.7,5.3c-1,1.1-1.8,2.9-3,3.2-2.2.5-2.7-1.3-2.8-3.2-.1-1.6-.5-3.1-.6-4.7-.3-4-2.1-7.1-5.5-9.2-1.2-.7-2.4-1.3-3.4-2.2-.8-.8-1.3-1.9-1.9-2.8,1.1-.2,2.3-.8,3.3-.6,7.1,1.5,12.1,7.1,12.8,14.3.2,1.6.4,3.1.6,4.7.1.1.3.3.5.5h0Zm-50-24.6c-.3.8-.5,1.7-1,2.2-4.9,5.3-7.8,11.5-10,18.3-.4,1.4-2.3,3.6-3.2,3.4-2.6-.5-2.2-2.9-1.7-5,1.8-6.7,5.3-12.5,10.1-17.4,1.2-1.2,3.2-1.8,4.8-2.6.5.4.8.8,1,1.1h0Zm16.1,5.2c.2.8.6,1.6.4,2.3-.6,2.2-1.5,4.2-2.1,6.4-1.2,4.6-1.7,9.2.4,13.9.5,1-.4,2.7-.6,4.1-1.3-.7-3-1-3.7-2.1-2.1-3.2-2.8-7-1.6-10.7,1.2-4,2.7-7.8,4.2-11.7.4-1,1.2-1.9,1.8-2.8.4.2.8.4,1.2.6h0Z"/>
    <path id="typo" d="m43.6,244.2c-.1,8.4-8.7,16.6-16.9,16.3-5.6-.2-7.2-1.9-7.8-7.5-.4-4.5-.9-9-1.5-13.5-.1-1.1-.5-2.2-.9-3.2-.4-.9-1.6-2.3-1.4-2.5.9-.9,2.2-2.1,3.3-2.1,5.3.2,10.6.3,15.8,1.3,6,1.2,9.4,5.8,9.4,11.2h0Zm-19.4,11.3c1.5.1,2.8.6,3.9.2,4.7-1.6,8.3-4.5,10-9.4,1.1-3.2,0-5.6-2.7-7.3-4.1-2.5-8.7-2.5-13.6-2.9.8,6.8,1.6,13,2.4,19.4h0Zm83.1-14c-.3-1.8-.8-3.5-.8-5.3,0-.9.8-1.9,1.2-2.8,1,.6,2.6.9,2.8,1.7,1.1,3.7,2,7.4,2.8,11.2.4,2.2.7,4.5.7,6.7,0,1-1,2-1.5,2.9-1-.7-2.7-1.2-2.9-2.1-1.5-5.6-6.7-7.2-10.3-10.5-.3.1-.6.3-.9.4.3,2,.8,4.1.9,6.1.2,2,.4,4.1-.1,5.9-.7,2.6-3.4,2.8-4.9.5-.6-.9-1-2.1-1.1-3.2-.1-5.1-.1-10.2.1-15.3.1-1.2,1-2.8,2-3.4.5-.3,2.2.9,3.2,1.6,2.7,2,5.4,4,8.1,6.1.3-.1.5-.3.7-.5h0Zm24.2,4.8c-.5.9-.9,1.5-1.2,2.1-1.7,2.7-3.9,5-7.3,4.5-3.7-.5-5.4-3.4-5.9-6.6-.6-3.6-.7-7.4-.7-11.1,0-1,1.6-2,2.4-3,.4,1,1,2,1.2,3,.8,3.5,1.2,7.1,2.2,10.6.8,2.5,2.6,2.8,3.7.4,1.4-3,2.2-6.3,2.9-9.6.4-1.9.2-4.4,2.8-4.1,1.1.1,2.1,2.4,2.8,3.8,1.4,2.9,2.6,5.9,3.6,9,.4,1.3.3,2.8.4,4.2-1.4-.3-2.9-.4-4.3-.9-.8-.3-1.5-1.4-2.6-2.3h0Zm22.6-12.5c1,4.6,2.1,9,2.7,13.4.2,1.6-.2,4.6-1,4.9-2.7.9-3.6-1.7-4.1-3.7-1-3.8-1.8-7.7-2.4-11.6-.3-2.2-1.3-3.1-3.4-3.2-2.1-.1-4.3-.4-6.3-1.1-.9-.3-1.3-1.8-1.9-2.7.9-.6,1.7-1.7,2.6-1.7,5.4-.1,10.9-.1,16.3.1,1.3.1,2.5,1.4,3.7,2.2-1.1.9-2.1,2-3.4,2.7-.8.5-1.8.5-2.8.7h0Zm-96.8,8.3c3.5-1.3,6.9-2.8,10.6-3.7,1.2-.3,2.8,1.1,4.2,1.7-1,1-1.9,2.2-3.1,2.9-1,.7-2.3.8-3.5,1.2-4.2,1.7-5.5,4-5.7,8.6,0,1.4-1,3.6-2,3.9-2.3.7-3-1.5-3.3-3.3-1-5.3-1.6-10.7-5.1-15.2-.3-.4,0-2.2.3-2.2,1-.2,2.5-.4,3,.1,1.8,2.1,3.3,4.3,4.6,6h0Zm25.2,13.4c-1.2.9-1.9,1.8-2.7,1.9-.5.1-1.7-1.2-1.6-1.6.2-.8,1-1.6,1.7-1.9.5,0,1.3.9,2.6,1.6h0Z"/>
  </g>
</svg>