<?xml version="1.0" encoding="utf-8"?>
<!-- Generator: Adobe Illustrator 27.1.0, SVG Export Plug-In . SVG Version: 6.00 Build 0)  -->
<svg version="1.1" id="Outline" xmlns="http://www.w3.org/2000/svg" xmlns:xlink="http://www.w3.org/1999/xlink" x="0px" y="0px"
	 viewBox="0 0 512 450" style="enable-background:new 0 0 512 450;" xml:space="preserve">
<path d="M373.3,0C324.4,0.8,279.7,27.6,256,70.4C232.3,27.6,187.6,0.8,138.7,0C58.9,3.5-3,70.7,0,150.4
	c0,97,102.1,202.9,187.7,274.8c39.5,33.2,97.1,33.2,136.5,0C409.9,353.3,512,247.4,512,150.4C515,70.7,453.1,3.5,373.3,0z
	 M296.9,392.5c-23.6,19.9-58.1,19.9-81.7,0c-109.6-92-172.5-180.2-172.5-242.1c-3-56.2,39.8-104.3,96-107.7
	c56.2,3.4,99,51.5,96,107.7c0,11.8,9.6,21.3,21.3,21.3c11.8,0,21.3-9.6,21.3-21.3c-3-56.2,39.8-104.3,96-107.7
	c56.2,3.4,99,51.5,96,107.7C469.3,212.3,406.5,300.6,296.9,392.5L296.9,392.5z"/>
</svg>
