<?xml version="1.0" encoding="UTF-8"?>
<svg id="Layer_1" data-name="Layer 1" xmlns="http://www.w3.org/2000/svg" viewBox="0 0 197.57 125.8">
  <defs>
    <style>
      .cls-1 {
        fill: #231f20;
      }
    </style>
  </defs>
  <path class="cls-1" d="m23.58,34.97c.18,1.17-.06,2.83-.66,3.88l-.78,1.35c-.6.98-.96,1.05-1.68,1.97-.3.49-.84.86-1.26,1.23l-1.2.55c-.6.31-1.5.62-2.1.62-1.98.31-4.02.74-6.06.74-.6,0-1.68.06-2.28.06-.66.06-1.5-.37-1.98-.37l-1.8-.19c-.42-.06-1.26-.18-1.8-.18v-1.48c.06-.37.06-.86.06-1.35-.06-.92.06-1.78,0-2.65-.06-.43-.06-.86-.06-1.29.06-.8-.24-1.66-.06-2.46.3-1.48.12-2.89.06-4.62-.06-.8-.06-1.54-.06-2.28l.06-3.08c0-.98-.06-3.57-.12-4.25-.06-.31-.06-.86,0-1.23.06-.55.12-1.29.12-1.91.12-1.29.06-3.26.06-4.68,0-.99.12-1.91.18-2.15-.06-1.17.06-1.78.06-2.15h6.36c1.62,0,3.3.31,4.98.43.36.06.6.12.78.25.54.18.96.18,1.26.37.78.86,2.76,1.48,3.06,2.52.12.43.54.92.66,1.29.54,1.97.48,6.83-1.14,8.43-.84,1.23-1.86,1.97-2.58,2.4-.36,0-.72.31-1.02.31.66.37.96.25,1.56.68.12,0,.72.25.84.25.6,0,1.26.49,2.28.98.48.25,1.98,1.35,2.28,1.79.6.68.36.68.9,1.42.48.62.6,1.29.72,2.15.42.55.36,2.22.36,2.65Zm-11.76,5.11c.54-.12,1.08-.25,1.56-.43,1.26-.55,1.62-1.35,2.16-2.58.42-.92.48-2.03.42-2.95,0-.55,0-1.05-.06-1.6,0-.74-.12-1.97-.78-2.46-.54-.92-2.46-1.42-3.48-1.6-.72,0-1.38,0-1.74-.31h-3.84c.06.19,0,.92,0,1.11,0,1.91-.24,3.94-.18,5.48l.12,2.83c0,.37-.06,2.22,0,2.52.96.12,1.86.25,2.7.31.66,0,3.06-.37,3.12-.31h0Zm-2.52-19.77c.36-.62.96-1.72.6-2.71,0-1.05-.6-2.34-1.68-2.71-.3,0-.3-.06-.6-.06-.3.12-.3,0-.66,0h-.36c0,2.09-.3,4.43,0,6.52h1.32c.3,0,1.08-.37,1.38-1.05h0Z"/>
  <path class="cls-1" d="m44.82,33.18c-.24.25-.84.31-1.2.31-.54.12-1.5.12-2.04.12-1.08,0-1.38.06-2.64.18l-3.6.31v.74c0,.92.18,1.79.84,2.65.36.62,1.02,1.29,1.56,1.48,0,0,1.2.55,1.74.49,2.16,0,2.76-.55,4.2-1.29.3,0,.72-.49.9-.55.36-.12,1.38-1.05,1.74-1.23.24.18.06,1.35.18,2.15,0,0,.06,1.11,0,1.91-.84.92-.48.68-1.5,1.66-.78.8-1.5,1.23-2.28,1.48-.9.49-2.1.62-2.7.86-.66.12-1.5.12-1.5.12-1.5,0-2.94.12-4.5-.68-.54.06-1.86-.49-2.16-.86-.84-.49-1.5-1.35-2.28-1.91-1.08-.8-1.44-1.72-1.86-2.71-.42-.74-.72-1.72-1.02-2.59,0-.86-.06-1.72-.06-2.52v-2.28c0-1.48.72-3.82,1.56-5.29,0,0,.66-.74,1.44-1.54.24-.06.48-.25,1.02-.55.24-.12.6-.68,1.2-.86.9-.31,1.74-.8,2.16-.8.54,0,2.28.12,3.66.18.72.06,1.2.31,1.44.31.6.06,1.02.12,1.5.31,1.44.49,1.98,1.05,2.46,1.6.3.37.6,1.05.9,1.42.36.49.78,1.48.96,2.28.18.68.24,1.91.24,2.71s-.06,1.05-.06,1.79c0,.18-.12.43-.3.62v-.02Zm-4.98-5.11c-.66-1.05-2.04-1.17-2.88-.98-.54.12-.6.37-.9.86-.12.12-.18.31-.36.49-.12.18-.18.49-.24.74-.12.37-.12.43,0,1.05.6.37,4.14.37,4.74,0,.06-.06-.24-.43-.24-1.23,0-.18,0-.74-.12-.92h0Z"/>
  <path class="cls-1" d="m72.3,44.88l-.42.06c-.42.06-.36,0-.96,0-.18.06-1.74.43-2.46.06-.42,0-.42-.12-.84-.12-.36-.31-.36-1.11-.36-1.54v-1.54l-.48.68-1.08,1.05c-.78.55-1.2.92-1.92,1.29-1.2.74-2.7.92-3.9.92s-2.64-.68-3.66-1.05c-.3-.06-.6-.31-.84-.49-.48-.43-1.14-.86-1.56-1.23-.24-.19-.42-.43-.72-.55-.24-.12-.42-.37-.54-.62-.42-.86-1.14-1.66-1.5-2.83-.24-.86-.78-1.72-.78-2.46,0-.37-.12-1.72-.12-2.09,0-.74.06-.98.06-1.79,0-.37.12-.8.3-1.54.12-.86.18-2.09.36-2.71.54-1.05.66-1.05.84-1.66.18-.49.42-1.48.96-1.85.42-.31,2.16-1.97,2.4-2.03l1.08-.49c.66-.25,1.5-.37,2.22-.37l1.86-.06c.42,0,1.02,0,1.2.06.36,0,.78.37,1.2.37.36,0,1.08.37,1.5.74.78.31,1.2.86,1.56,1.23.36.43.78.74,1.14,1.17.06.25.42.43.42.43.12-.18.12-.74.36-1.17.06-1.17.12-2.22.18-2.52-.06-.31.06-1.17.48-1.05.36-.12,2.52.37,3.6.37.06,0,.06.55,0,.8l.36,5.91v6.65c0,.25-.06.49-.06.74.06.74.06,1.54.06,2.34.06.55,0,1.17,0,1.85,0,1.05.12,3.63.06,4.74v.31h0Zm-7.74-9.49c0-.49.48-2.28-.42-4.74-.24-.62-.66-1.54-1.68-1.91-.54-.12-1.02-.43-1.56-.37-.54.18-1.56.8-2.1,1.6-.36.43-.42.86-.48,1.54-.24,1.05-.36,1.48-.36,2.34,0,1.6,1.32,3.02,1.56,3.39.24.25.36.12.78.55.78.37,1.5,0,2.34-.43h.36c.72-.37,1.14-.74,1.56-1.54.06-.06,0-.43,0-.43Z"/>
  <path class="cls-1" d="m79.98,41.86c-.36-.43-.72-.62-.78-.98-.54-1.23-1.38-1.97-1.62-3.14-.24-1.11-.48-2.4-.6-3.45,0-1.11-.12-2.03-.12-3.2,0-1.23.18-2.09.18-3.32,0-.8-.06-1.72-.06-2.52v-.86c0-.74.18-1.54.18-2.34.96-.06,2.64,0,3.36,0,.24.06,1.38-.06,1.68-.06.36,0,2.22,0,2.58.06,0,0-.18,1.05-.18,1.42,0,1.11-.12,1.97-.12,2.95s.24,6.52.42,7.51c0,.8.06,1.23.12,2.03.06.86.54,1.54.72,1.72l.36.98.84,1.11c.54.74,1.62.74,2.52.68l1.38-.12c.66-.06,1.56-1.17,2.16-1.54.36-.37.66-1.29.9-2.09.06-.12.72-3.14.72-3.32.06-.68.18-1.54.12-2.22-.12-.74.12-1.72.12-2.52,0-.68.12-1.6.18-2.03,0,.12.12-1.85.06-2.03-.06-.49-.24-.92-.24-1.42,0-.25.12-.49.12-.74h1.26c.3,0,.6.12.78.12.78,0,1.38.06,1.74,0,.36-.12.54-.06.96-.12.6.12.96-.06,1.68,0,.06.43-.12,1.23-.12,1.97,0,1.54.06,3.2,0,4.8-.06.86,0,1.72-.12,2.52,0,.25-.06,2.09,0,2.28.3,1.79-.12,5.66-.06,7.45,0,1.23.12,2.4.12,3.63-1.92.37-3.66.25-5.58.37-.12-.18-.18-.37-.18-.8s-.06-.74-.12-1.11-.12-.92-.12-.92c-.12,0-.54.62-.9.74-.78.37-1.56.86-2.34.98-1.56.74-3.6.74-5.64.74-1.2,0-1.98-.49-2.76-.92-1.26-.49-3-1.79-3.6-2.28h0Z"/>
  <path class="cls-1" d="m117.66,44.69c0,.49,0,1.66-.06,2.15.06.31-.3.68-.42.8h-1.56c-.42,0-.96-.06-1.38-.06-.6.25-2.58.06-2.82.06-.24-.29-.36-.55-.36-.8v-5.91l-.12-3.63.12-4.12-.06-3.57-.24-2.95c-.96,0-2.58.18-3.3,0-1.38-.25-1.92,0-3,0v-3.94h.36c.36,0,.72-.06.84,0,.42.31,1.44.06,1.38-.06.9-.06.78-.06,1.5-.06.66,0,2.22.06,2.64,0,.06,0,0-2.28,0-3.14.18-1.54.18-2.71.24-4.31.06-1.11.06-2.15.06-3.32s.18-3.08.12-4.37c0-.43-.18-.43-.18-.8s0-.62.42-.62c.72,0,1.56.12,2.28.12,1.2,0,2.28,0,2.88.06.54.06.96.12,1.38.25.06,0,0,1.66-.06,2.59-.06,2.03-.06,3.32,0,5.36,0,.92-.06,1.91,0,2.83,0,.49-.24,3.75-.3,4.25,0,.43.24.8.36.8.42,0,1.14.18,1.56.18.36,0,.78.18,1.56.18.72,0,1.5.06,2.34.06.36,0,.72.06.72.06.36,1.23.36,3.08,0,3.88h-.36c-1.56.18-3.12.31-4.68.31-.36,0-1.02.06-1.44.06,0,.37-.06.8-.06.8v.55c0,.74.06,1.29,0,1.97l.12,3.26-.24,2.77c.06.86-.18,4.62-.24,5.48,0,.92-.06,1.91,0,2.83Z"/>
  <path class="cls-1" d="m134.16,43.09c0,.25-.06.43-.18.55-.78.12-1.98.31-2.82.25-.72-.06-1.56.12-1.86.12,0-.49-.12-.8-.06-1.54.06-.68,0-1.48,0-2.09v-3.02c-.06-1.91-.06-4.19-.12-4.86-.06-.74.12-1.48.12-2.22-.06-1.17,0-2.34,0-3.51,0-.98-.12-2.89,0-3.88.66-.12,1.68-.12,2.76-.18.9-.06,1.92-.06,2.28-.06.12,0,.06.68.06.8-.06,2.03.06,3.39-.06,5.05.06,1.66,0,2.65-.12,4.25-.06.49.18,4.86.12,6.28.12,1.6,0,2.95-.12,4.06Zm-4.98-26.59c0-.37-.06-.74-.06-1.05,0-.12.06-.25.06-.37h4.32c.28,0,.42.12.42.37v4c-.9.12-4.62.12-4.68-.12-.06-.19-.06-.37-.06-.62-.06-.43,0-1.35,0-2.22h0Z"/>
  <path class="cls-1" d="m151.26,5.91c1.2-.43,2.7-.43,3.9-.43h2.34v3.2c-.42,0-.78.06-.78.06-.36,0-.42.25-.84.25-1.14.43-1.92.86-2.7,1.23-.36.43-.72.8-1.14,1.6-.36.8-.78,1.6-.78,2.34,0,1.23-.42,2.77-.42,4s-.3,1.97-.3,3.2v.74l.78.12c.24,0,1.08.25,1.86.25.72,0,1.56.06,1.68.06h1.02c0,.8.06.98,0,1.72,0,.25-.12.8-.18,1.11-.06.18,0,0-.12.43-.06.06-.36-.06-1.02,0-.24,0-1.02.37-1.74.31-.3,0-.78.12-1.08.19-.48.06-.84.18-1.32.18-.18,1.66-.48,4.49-.54,6.16-.06,1.05.24,1.97.06,2.89,0,.25.12.49,0,.68-.18,1.05,0,6.77,0,6.03.12.37.18,1.11.18,1.54.06.98,0,2.22,0,2.4,0,0-.36.37-.78.37s-1.14.12-1.5.12c-.42,0-1.2.19-1.62.19-.72,0-2.04.25-2.82.25,0-.8-.24-1.11-.12-1.91,0-.12-.12-3.63-.12-3.75-.12-.8-.06-2.46-.06-4,0-1.05.06-3.08.12-4.49,0-.68.06-2.52.12-3.26.06-.86-.18-1.6-.18-2.4v-.8c-1.08-.12-2.64-.25-3.66,0-.18-.12-.24-.25-.3-.37,0-.8.06-1.6.06-2.34v-.86c.28-.25.56-.37.84-.37.78,0,2.34-.06,3.12,0,.6.06,0-.43.36-.86,0-1.17.12-1.23.12-2.46,0-1.78.24-3.32.24-5.05,0-.55.18-.8.24-1.17.06-.49.12-.86.24-1.35l.9-1.97c.6-1.17,1.26-1.66,1.8-2.28.72-.86.96-.8,1.08-.8.18,0,.48-.25,1.02-.43.6-.18,1.44-.31,1.62-.25h.42v-.02Z"/>
  <path class="cls-1" d="m161.22,41.86c-.36-.43-.72-.62-.78-.98-.54-1.23-1.38-1.97-1.62-3.14-.24-1.11-.48-2.4-.6-3.45,0-1.11-.12-2.03-.12-3.2,0-1.23.18-2.09.18-3.32,0-.8-.06-1.72-.06-2.52v-.86c0-.74.18-1.54.18-2.34.96-.06,2.64,0,3.36,0,.24.06,1.38-.06,1.68-.06.36,0,2.22,0,2.58.06,0,0-.18,1.05-.18,1.42,0,1.11-.12,1.97-.12,2.95s.24,6.52.42,7.51c0,.8.06,1.23.12,2.03.06.86.54,1.54.72,1.72l.36.98.84,1.11c.54.74,1.62.74,2.52.68l1.38-.12c.66-.06,1.56-1.17,2.16-1.54.36-.37.66-1.29.9-2.09.06-.12.72-3.14.72-3.32.06-.68.18-1.54.12-2.22-.12-.74.12-1.72.12-2.52,0-.68.12-1.6.18-2.03,0,.12.12-1.85.06-2.03-.06-.49-.24-.92-.24-1.42,0-.25.12-.49.12-.74h1.26c.3,0,.6.12.78.12.78,0,1.38.06,1.74,0,.36-.12.54-.06.96-.12.6.12.96-.06,1.68,0,.06.43-.12,1.23-.12,1.97,0,1.54.06,3.2,0,4.8-.06.86,0,1.72-.12,2.52,0,.25-.06,2.09,0,2.28.3,1.79-.12,5.66-.06,7.45,0,1.23.12,2.4.12,3.63-1.92.37-3.66.25-5.58.37-.12-.18-.18-.37-.18-.8s-.06-.74-.12-1.11-.12-.92-.12-.92c-.12,0-.54.62-.9.74-.78.37-1.56.86-2.34.98-1.56.74-3.6.74-5.64.74-1.2,0-1.98-.49-2.76-.92-1.26-.49-3-1.79-3.6-2.28h0Z"/>
  <path class="cls-1" d="m192.66,28.87c-.12.43-.12.74-.12,1.17,0,.49.12,2.28.12,2.83v1.35c0,.74.06,1.48.06,2.22,0,.55-.12,1.11-.06,1.66,0,.49.12.92.12,1.42v5.6c0,.43.24.92,0,.86-.78,0-1.98.31-2.82.31-.72,0-1.14,0-1.98-.43v-.8c-.36-1.54-.36-2.77-.36-3.94,0-.86-.06-1.66.12-2.46,0-.12,0-.31-.12-.49-.06-.19-.06-1.66-.06-1.91v-2.59c0-.98-.06-1.97.06-2.95.12-.12.3-3.32.3-3.69.06-1.29,0-2.65.06-3.88,0-2.34-.06-4.62,0-6.89,0-1.48,0-2.89-.06-4.31-.12-1.54.18-1.35.06-2.95,0-.8.12-1.6.12-2.34,0-.8-.06-1.29-.06-2.09l.3-.31c.78,0,1.86.12,2.58.06.66-.06.78-.06,1.44-.06.18,0,.42.12.48.18.18,2.71-.12,5.23-.12,8.13v4.31c-.06,2.95-.24,5.42-.24,7.88,0,.86.12,1.91.12,2.77.06.18.06,1.05.06,1.35h0Z"/>
  <path class="cls-1" d="m40.76,118.24c0,2.33.06,2.71.06,3.94,0,.26-.38.52-.69.58h-4.03v-.71l-.31-4.59c0-1.62-.06-3.17-.13-4.72v-1.75c0-1.16-.13-2.39,0-3.55v-2.2c0-1.55-.06-3.04-.13-4.52,0-.39.06-.71.06-1.1-.06-3.62,0-5.62-.13-9.44v-1.81c-.06-.97-.13-2-.13-2.91,0,0-.06-.32.06-.65.06-.06.38-.13.69-.19.31-.06.38-.06.82,0,.57.13,1.45.06,2.46.06.82,0,1.45.19,1.45.39v10.08c-.06.71,0,1.36-.06,2-.06.97,0,1.87,0,2.84v1.1c0,.26,0,.58-.06.9-.13.32.06,2.13.06,2.52.06,2.33-.13,2.33-.13,2.59-.06,1.23.13,2.46.13,3.62.06,1.62,0,3.23,0,4.85,0,.32-.06,2.2,0,2.65v.02Z"/>
  <path class="cls-1" d="m60.67,123.09s-1.07-.13-1.39-.13c-1.64.19-2.02.06-3.53-.58-.57-.32-1.45-.32-2.02-.78-1.01-.78-2.33-1.23-3.34-2-.19-.13-.5-.39-.63-.65-.82-.58-1.58-1.1-2.14-1.87-.69-.78-2.83-4.4-2.83-5.3,0-1.29-.76-2.46-.76-3.75,0-.19-.06-3.04,0-5.17.06-1.29.19-2.33.25-2.39.88-4.14,1.64-7.5,4.1-10.21.31-.71.82-1.23,1.58-1.55,1.07-.71,2.08-1.42,3.21-2.13,1.2-.52,2.52-.84,3.28-1.16,1.32-.06,2.65-.71,3.84-.71,1.01,0,2.52,0,3.53.39,1.32.13,2.84.65,3.91,1.49.5.39,1.07.58,1.45.71v1.03c0,.39.06,1.16.06,1.49,0,.26,0,.52-.13.78-.13.19-.06.58-.25.58,0,0-.19.06-.5-.19-.38-.26-.88-.26-1.2-.32-.5-.06-.69-.26-1.39-.26-.44,0-.94,0-1.45.06-.63.06-2.14,0-2.52.06-.57.06-.94.26-1.26.45-.76.39-1.32.78-1.95,1.16-.95.78-1.7,1.55-2.39,2.39-2.02,2.52-3.02,4.65-3.02,7.82v3.94l1.45,5.04c.13,1.03.88,1.75,1.32,2.59,1.39,1.42,2.52,2.13,3.65,2.97.69.32,1.7.65,2.39,1.03.5,0,1.01.39,3.21.39h2.14c.69,0,1.07,0,1.51-.39h.31l1.13,3.3c-.76.45-1.32.65-2.08.97-1.26.32-2.21.52-3.34.9h-4.22.02Z"/>
  <path class="cls-1" d="m102.75,99.62c.31,1.03.31,2.65.31,3.62,0,1.1,0,1.75-.31,2.97,0,1.03,0,2.58-.5,3.62-.25.58-.13,1.62-.5,2.59l-.76,1.81c-.57,1.49-1.32,2.97-2.02,3.94-.38.71-1.95,2.26-2.65,2.97-.76.78-1.45,1.49-2.46,1.87-.31.13-.69.32-1.07.39-1.07.13-2.02.32-2.9.39-1.2.06-4.28-.06-4.85-.26-1.51-.58-2.83-1.1-3.91-2.26l-2.65-2.26c-1.83-1.55-2.83-3.68-3.53-5.88-.38-1.03-.38-1.87-.76-2.59-.44-2.52-.76-4.46-.69-6.66.06-1.03,0-2.46.19-3.62.19-.52.69-4.72.88-5.3.76-2.52,1.45-4.52,2.77-6.08l1.83-2.07c.44-.45,1.13-.84,1.64-1.16l1.39-.84c.82-.58,2.77-1.1,3.84-1.29,1.07-.13,2.46-.26,3.78-.26,1.13,0,1.83.32,2.83.65.63.13,2.96.97,4.16,2.26.5.58,1.7,1.23,2.14,2,.19.32.5.71.76,1.03.63,1.03,1.89,2.84,1.89,3.88.38,2.07,1.13,4.33,1.13,6.53h.02Zm-14.3,8.03c.31,0,.31-.26.69-.32.57-.06.69-.71,1.13-1.1.31-1.87.31-3.3.31-5.17,0-.65-.31-1.42-1.07-1.75-.76-.39-1.07-.39-1.7,0-.38,0-.76.32-.76.32-.44.78-.82,1.42-.82,2.13v3.23c.19,1.36.69,2.07,1.58,2.65h.64Z"/>
  <path class="cls-1" d="m126.19,107.45c.38,1.16,1.07,2.2,1.76,2.91.32.71.88,1.81,1.39,2.52l.13-.26v-3.3c0-.13.06-.19.06-.32-.31-1.94.13-3.43-.06-5.24.06-.58.06-1.1.06-1.62l-.13-3.36v-8.01c0-.65.13-4.33.06-5.56,0-.32,0-.71.69-.71h2.08c.76,0,2.02.39,2.33.39h.32c.06,5.88.13,12.54.32,15.32-.06.71,0,1.36-.06,2-.06.97,0,1.87,0,2.84v3.1c.06,2.33-.13,3.75-.13,4.01-.06,1.23-.06,2.46-.06,3.62.06,1.62-.06,3.23,0,4.85,0,.65,0,1.29.06,1.94,0,.32-.31.32-.69.32h-2.08c-1.01.13-1.57,0-1.83,0-.82-2.2-1.32-2.71-2.46-4.85-.25-.39-.76-1.36-1.07-1.75-.5-.58-.69-1.49-1.45-2.2-1.07-1.75-2.08-3.62-3.21-5.49-1.13-1.81-2.77-3.68-4.28-6.08-.63-1.62-2.21-3.43-3.15-4.98,0-.32-.13,4.2-.13,4.14v.52c.06.65-.06,1.36-.06,2l-.13,8.01.13,3.36c0,.52.06,1.03,0,1.62.13,1.23,0,2.59.06,3.88.06,1.16-.06,1.62-.25,1.81h-4.98c-.69,0-1.39.06-2.08,0-.13.06-.13-3.43-.13-4.52,0-1.23.06-2.46,0-3.68,0-1.23.13-2.39.06-3.56,0-.84-.06-1.36-.06-1.81l-.13-.97c0-.13.06-.19.06-.32-.31-1.94,0-3.88-.19-5.69.06-.58.06-1.1.06-1.62l-.13-3.36.19-8.01c0-.65-.06-1.36-.13-2l.38-.58c.38,0,1.51-.06,2.83,0,1.07,0,1.45-.19,2.14-.19.38,0,.63.19,1.13.19h1.32c.25.65.82,1.49,1.2,2.33.88,1.87,1.26,3.3,1.7,3.88.69.84,2.02,3.3,2.77,4.65,1.64,2.91,3.53,6.27,5.73,9.82h.04Z"/>
  <path class="cls-1" d="m157.25,83.4c1.13-.06,4.35.39,5.36.32.76,0,2.39,0,3.09.32.32.13,1.89.32,2.14.39.25,0,.48.11.69.32,0,.84-.31,1.55-.31,2.26-.57,0-1.32.13-1.83.19-.82.13-1.07.06-2.14.06-2.08,0-4.66.32-4.85.39-1.76.32-6.8,1.49-7.75,2.71-.76,1.1-1.58,1.55-1.89,2.71-.31.71-.06,3.56.38,4.46.63.78,1.07,1.75,1.32,1.87.57.32,1.51.97,2.46,1.36.19.06,1.2.19,2.33.52.63.19.63.26,1.2.39.38.13.44.26.88.39.5.13,1.32.32,1.39.32.69,0,1.45.32,2.08.32,1.2.32,2.14.32,3.21,1.1.57.13,1.32.45,1.76.71.5.26,3.21,1.81,3.53,2.71.82,1.36,1.13,2.78,1.13,4.27,0,.45-.19,1.29-.25,1.68l-.32,1.81c-.13.39-1.01,2-1.13,2.13-.19.32-1.58,1.68-1.7,1.81-1.13.97-5.29,4.01-6.93,4.01-.13.13-.44.06-.69.19-.88,0-1.64.19-3.02.13-1.26-.06-2.33.13-3.65.06-1.39-.06-5.86.06-7.5-.39-.19-.06-2.02-.26-2.52-.32-.69-.06-2.33-.26-2.83-.45-.32-.13-.82-.45-.82-.9-.32-.71-1.32-4.59-1.01-4.65,1.45.32,2.83.65,4.66.97,1.45,0,2.77.45,4.6.45.69,0,1.32-.13,2.52-.32.25-.06.57-.06.69-.13,1.26,0,3.21-1.16,4.16-1.55.19,0,1.7-1.29,1.89-1.62l1.2-1.87c.13-.39.5-1.03.69-1.49.25-.71.25-1.42,0-2.46-.5-.45-.69-.97-1.2-1.55-.38-.65-1.01-1.03-1.7-1.36-1.13-.39-2.21-.9-2.9-.9-1.13-.32-1.83-.32-2.46-.65-1.07-.32-1.83-.32-2.52-.71-1.07,0-1.7-.39-2.9-.71-.44-.26-1.01-.52-1.26-.71-1.2-.9-1.95-1.29-2.84-2.52-.82-1.16-1.01-1.16-1.51-2.2-.38-.84-.57-3.17-.57-3.68,0-1.1.13-1.68.19-2.46.06-.71.5-1.55.88-2.07.95-1.68,2.08-2.13,3.59-3.23.69-.58,3.09-1.55,4.03-1.81.69,0,1.07-.32,1.83-.32.69,0,.94-.13,1.57-.13.38,0,.82.13,1.64-.19s2.9,0,3.91,0v.02Z"/>
</svg>