<?xml version="1.0" encoding="UTF-8"?>
<svg id="Layer_2" data-name="Layer 2" xmlns="http://www.w3.org/2000/svg" viewBox="0 0 325.2 327.8">
  <g id="threeNuts">
    <path d="m203.46,136.07c.32-.29.71-.53.96-.87,6.7-8.91,15.31-11.86,26.15-8.9,2.97.81,6.29.24,9.4.67,7.92,1.09,14.81,4.47,20.83,9.97.52-.41,1.06-.84,1.61-1.27,7.54-5.88,15.76-10.8,25.28-12.03,10.9-1.42,20.45,2.5,27.87,10.67,3.88,4.27,4.58,9.9,5.25,15.47.88,7.38-1.75,13.3-6.8,18.43-1.31,1.33-2.42,2.87-3.27,3.88,3.35,3.21,6.65,6.01,9.5,9.21,2.84,3.18,4.22,7.15,4.56,11.45.51,6.54.85,13.03-1.04,19.46-1.93,6.55-5.41,9.71-12.24,10.62-1.69.23-3.39.4-5.29.63.34.68.53,1.18.81,1.61,7.13,10.76,5.8,21.74.55,32.63-2.75,5.71-9.64,8.43-15.76,6.79-2.09-.56-4.13-1.3-6.46-2.04,0,2.93-.09,5.86.07,8.78.03.64.84,1.32,1.43,1.82,2.09,1.75,4.31,3.34,6.33,5.16,1.35,1.22,2.17,2.87.87,4.6-1.3,1.74-3.13,1.42-4.65.42-3.03-1.99-6.09-4-8.79-6.4-1.02-.9-1.51-2.89-1.49-4.38.04-3.53.45-7.06.86-10.58.24-2.1-.18-3.62-2.13-4.78-2.17-1.29-3.98-3.41-6.28-4.19-1.84-.63-4.69-.54-6.21.5-4.51,3.1-8.97,6.13-14.25,7.81-.55.17-1.12,1.32-1.11,2.01.04,2.9.49,5.81.39,8.7-.06,1.7-.56,3.57-1.45,5.01-2.48,4.01-5.26,7.84-7.92,11.74-.31.45-.57.94-.91,1.35-1.09,1.32-2.67,2.23-3.96.96-.86-.84-1.38-2.87-.99-3.99.71-2,2.19-3.73,3.42-5.53,1.28-1.88,2.45-3.87,4-5.51,3.78-3.99,2.88-8.82,3.06-13.73-9.64.1-19.14.54-26.89-7.74-8.98,25.14-23.94,44.99-47.03,58.28,2.3,1.41,5.69,1.71,9.41,1.08,1.16-.2,2.46-.66,3.47-.32,1.2.41,2.89,1.43,3.04,2.4.18,1.17-.76,3.42-1.68,3.7-6,1.82-12.14,3.24-18.47,1.83-2.28-.51-3.38-2.04-2.5-4.94-1.15.34-1.97.54-2.77.82-14.84,5.14-29.93,6.29-45.28,2.69-2.28-.53-3,.88-2.97,2.37.04,2.54-1.3,3.82-3.34,4.31-2.68.65-5.48,1.25-8.18,1.07-1.19-.08-2.83-1.96-3.22-3.32-.56-1.95,1.18-2.92,2.99-3.5,2.72-.88,5.38-1.92,8.07-2.89-.01-.28-.02-.56-.03-.84-2.25-1.31-4.47-2.67-6.75-3.93-13.15-7.28-23.2-17.35-30.03-30.96-6.28-12.5-12.03-25.05-13.33-39.16-.48-5.22-.64-10.48-.94-15.76-2.49.98-5.41,1.47-7.29,3.14-.98.87-.46,3.9.04,5.78.29,1.1,1.86,1.89,2.89,2.77,1.27,1.08,2.45,2.55,1.18,3.89-.76.8-2.86,1.01-4.07.6-3.79-1.26-5.38-3.92-5.28-7.87.03-1.35,0-2.71,0-4.29-3.6-.25-7.07-.49-10.51-.72-.09.14-.19.22-.18.29.91,5.61-2.92,8.31-6.75,11.01-1.41.99-3.02,1.86-4.33.16-1.4-1.81-.12-3.19,1.3-4.36,1.26-1.04,2.6-2,3.75-3.15,2.6-2.6,1.92-6.59-1.34-8.2-1.79-.88-3.62-1.69-5.41-2.57-8.96-4.4-14.12-11.78-15.31-21.46-1.17-9.53-1.52-19.17-1.97-28.77-.12-2.66.54-5.41,1.16-8.04.35-1.48.33-2.4-.81-3.58-3.59-3.7-4.87-8.36-6.07-13.33-1-4.15,1.41-5.74,3.46-7.93,6.7-7.15,15.59-10.47,24.49-13.67,4.31-1.55,8.78-2.65,13.73-4.12-1.52-1.82-2.99-3.83-4.72-5.58-1.96-1.98-2.47-3.8-1.12-5.44,1.31-1.59,3.9-2.05,5.57-.18,2.67,3,4.94,6.41,6.97,9.88.93,1.6,1.73,2.54,3.61,2.63,2.26.1,4.51.46,6.77.7,2.22.24,4.45.47,6.94.74-2-6.47-3.45-12.86-5.93-18.81-5.52-13.27-5.99-26.77-3.2-40.61.73-3.65,1.36-7.32,2.24-10.93,5.08-20.81,17.12-35.89,36.8-44.72,9.54-4.28,19.13-8.49,29.61-9.77,32.02-3.89,59.21,5.1,80.09,30.52.43.53.31,1.51.45,2.28.16.86.02,2.09.54,2.53,6.77,5.78,8.59,13.85,10.48,21.93,3.02,12.9,2.33,25.94.03,38.69-1.41,7.81-5.28,15.19-8.26,22.68-1.64,4.12-3.83,8.02-5.55,12.12-.53,1.27-.31,2.86-.43,4.3.22.05.44.1.66.15Zm-135.63-20.26c2.23,4.45,3.96,8.87,6.55,12.72,1.63,2.42,4.47,4.06,6.91,5.87,1.14.85,2.67,1.14,3.9,1.9,2.22,1.36,2.36,3.21.69,5.17-1.21,1.42-2.6,2.81-3.32,4.47-2.32,5.32-4.59,10.67-6.47,16.16-6.12,17.85-8.32,36.38-9.24,55.12-.51,10.27-.67,20.49,1.24,30.68,2.21,11.8,7.62,22.22,13.04,32.72,4.01,7.77,9.3,14.35,16.28,19.45,7.69,5.62,15.51,11.58,25.08,13.2,12.39,2.1,24.77,1.03,36.77-3.24,8.84-3.14,15.93-8.89,23.1-14.64,7.4-5.93,13.8-12.74,18.08-21.19,5.2-10.27,10.34-20.61,14.71-31.26,5.41-13.18,7.48-27.04,6.04-41.36-1.16-11.53-3.58-22.56-10.61-32.16-2.57-3.51-4.86-7.23-7.08-10.96-.74-1.25-1.67-3.28-1.16-4.2,1.45-2.63.08-4.48-.85-6.58-.92-2.07-1.81-4.16-2.76-6.22-2.52-5.46-2.3-10.73.27-16.22,3.49-7.47,6.62-15.12,9.7-22.77,1.14-2.84,2.29-5.87,2.46-8.87.63-10.85,2.19-21.78-.47-32.55-1.34-5.43-2.37-11.2-5.07-15.95-3.36-5.93-7.72-11.57-12.66-16.27-18.76-17.86-41.36-24.36-66.88-21.08-10.2,1.31-19.58,5.28-28.85,9.48-16.16,7.33-26.11,20.03-31.25,36.71-1.25,4.05-1.57,8.38-2.58,12.52-2.17,8.87-2.61,17.78-.86,26.74.6,3.05,2.05,5.93,2.68,8.97.8,3.85,2.6,6.79,5.76,9.18,2.72,2.05,5.1,4.57,7.83,7.06-4.26,1.35-6.85-2.66-10.96-2.58Zm145.17,37.53c-1.84,2.23-.51,4.06.5,5.81,3,5.18,6.67,10.05,9.06,15.49,7.16,16.23,8.68,33.35,5.68,50.69-1.52,8.78-4.48,17.3-6.81,26.05,2.01.86,4.49,2.26,7.16,2.98,2.69.72,5.55.84,8.35,1.07,10.31.87,19.22-2.23,26.3-9.83,4.19-4.51,6.35-4.23,8.44,1.55.06.15.23.27.35.4.09-.26.19-.51.28-.77,1.93.62,3.99,1,5.75,1.94,2.39,1.28,4.45,3.16,6.83,4.46,2.92,1.6,5.92,3.16,9.06,4.18,2.86.93,6.04-.67,7.31-3.39,2.71-5.78,4.38-11.92,2.65-18.22-1.48-5.39-3.62-10.63-9.36-13.29-.86-.4-1.55-2.29-1.43-3.4.23-2.21,2.13-2.58,4.1-2.64,4.53-.13,9.07-.22,13.59-.59,3.18-.26,5.52-1.91,5.9-5.36.51-4.57,1.3-9.17,1.23-13.74-.17-10.24-4.1-15.32-13.74-18.8-3.12-1.12-3.98-3.63-1.97-6.19,2.35-3,4.77-5.96,7.32-8.78,5.33-5.89,6.01-17.53,1.3-24.03-5.2-7.16-18.35-11.23-26.78-8.57-7.55,2.38-14.27,6.17-20.47,11.02-3.22,2.52-5.55,2.04-8.74-.48-4.03-3.18-8.31-6.19-13.59-6.99-5.19-.78-10.39-1.46-15.6-2.09-7.65-.93-16.9,4.71-19.04,11.51-.05.17-.16.4-.09.52,1.84,3.29,2.13,7.62,6.46,9.49Zm-201.76,12.55c0,1.36-.09,2.35.01,3.33,1.11,10.91,1.96,21.86,3.48,32.71.77,5.47,3.43,10.5,8.37,13.5,4.87,2.96,10.05,5.39,15.15,7.96.85.43,1.94.49,2.92.55,6.27.4,12.02-.55,16.79-5.31,1.57-1.57,2.22-2.97,2.43-5.06.74-7.49,1.55-14.97,2.59-22.42.77-5.52,1.94-10.98,2.91-16.35-18.59.15-36.7-2.15-54.66-8.9Zm40.01-35.38c-.09,1.51.02,2.62-.24,3.64-.67,2.51-1.28,5.09-2.4,7.4-.4.83-2.21.96-3.38,1.42-.42-1.09-1.1-2.16-1.19-3.28-.1-1.13.52-2.3.58-3.46.39-6.84.13-7.39-6.39-5.68-11.38,2.99-22.58,6.8-31.98,14.48-2.05,1.68-2.31,3.25-1.28,5.39,2.2,4.57,5.38,7.97,10.25,9.95,8.67,3.53,17.77,5.03,26.91,6.37,8.25,1.21,16.53,2.49,24.86.58.73-.17,1.74-.74,1.94-1.35,2.89-8.62,6.82-16.71,12.01-24-4.23-2.41-8.6-4.36-12.34-7.15-5.27-3.93-11.38-2.87-17.35-4.33Z"/>
    <path d="m102.49,246.91c-.6-.65-2.13-1.62-2.58-2.95-1.67-4.87-3.43-9.78-4.35-14.82-3.06-16.75-1.79-33.46,1.37-50.07.29-1.54,1.18-2.99,1.97-4.39.21-.37,1.06-.38,1.62-.56.12.55.37,1.11.34,1.66-1.13,18.79-1.93,37.57,2.29,56.13.78,3.44,2,6.79,2.84,10.22.76,3.09-.3,4.91-3.49,4.78Z"/>
    <path d="m203.33,206.43c-.85,11.01-4.85,22.51-10.32,33.56-.2.4-.43.93-.78,1.09-1.29.6-2.64,1.06-3.96,1.58-.35-1.3-1.27-2.77-.94-3.88,1.36-4.69,3.22-9.24,4.65-13.92,1.56-5.11,3.04-10.25,4.18-15.47,1.65-7.54-.26-14.57-3.82-21.24-.98-1.84-2.07-3.65-2.79-5.59-.31-.82.22-1.95.36-2.95.96.26,2.22.23,2.84.83,6.88,6.71,10.5,14.88,10.58,25.96Z"/>
    <path d="m122.33,80.17c-.05,2.86-3.36,5.97-6.38,5.98-2.8,0-5.47-2.82-5.41-5.73.06-3.11,2.84-5.21,6.74-5.11,3.03.08,5.09,2.07,5.05,4.86Z"/>
    <path d="m176.81,80.38c.01,2.99-2.25,5.62-4.83,5.59-2.48-.03-5.76-3.06-5.74-5.3.03-3.03,2.8-6.02,5.58-6.02,2.76,0,4.97,2.54,4.98,5.73Z"/>
    <path d="m148.71,123.68c-.04,2.56-1.24,3.88-3.48,3.82-2.17-.06-4.04-2.1-3.85-4.35.19-2.3,1.61-3.28,3.83-3.26,2.37.02,3.54,1.29,3.5,3.79Z"/>
    <path d="m157.14,111.6c-1.16-1.62-2.31-2.53-2.3-3.43,0-.78,1.38-2.26,2-2.19.94.12,2.3,1.21,2.45,2.08.14.81-1.05,1.85-2.15,3.54Z"/>
    <path d="m140.02,113.08c-1.26-1.6-2.55-2.52-2.49-3.35.05-.84,1.35-2.03,2.28-2.22.6-.13,2.08,1.21,2.15,1.97.08.9-.95,1.9-1.93,3.6Z"/>
    <path d="m128.86,114.04c-1.58.95-2.48,1.91-3.31,1.85-.69-.05-1.92-1.49-1.78-1.99.24-.84,1.31-1.84,2.16-1.99.63-.11,1.48,1.02,2.92,2.13Z"/>
    <path d="m169.81,115.49c-1.55.82-2.42,1.67-3.16,1.57-.66-.09-1.18-1.22-1.76-1.89.73-.61,1.4-1.58,2.21-1.72.57-.1,1.32.95,2.7,2.04Z"/>
    <path d="m256.69,188.92c.44-5.34.92-12.3,1.64-19.23.18-1.75,1-3.48,1.74-5.11.26-.58,1.2-.85,1.83-1.26.36.67,1.02,1.33,1.03,2.01.03,1.71-.4,3.44-.33,5.15.65,15.75.24,31.62,5.3,46.88.26.77.44,1.58.54,2.39.26,2.15-.03,4.16-2.52,4.72-2.41.55-3.8-.89-4.37-3.07-1.15-4.38-2.55-8.74-3.19-13.2-.84-5.82-1.05-11.73-1.66-19.28Z"/>
    <path d="m283.28,175.08c-.02,2.92-2.18,4.93-4.82,4.87-2.17-.05-3.65-1.03-3.77-3.35-.13-2.34,2.33-4.32,5.23-4.36,2.23-.03,3.28,1.13,3.36,2.84Z"/>
    <path d="m238.31,171.18c1.93-.34,3,.59,3.14,2.58.14,2.02-1.91,3.84-4.34,3.87-2,.02-3.29-.88-3.4-2.98-.11-2.16,1.52-3.37,4.6-3.47Z"/>
    <path d="m34.36,185.76c-.09,2.29-2.43,4.6-4.46,4.52-2.05-.09-3.21-1.2-3.22-3.26-.01-2.07,2.38-3.95,4.79-3.93,1.9.01,2.81,1,2.89,2.67Z"/>
    <path d="m49.78,190.98c-1.94-.05-3.43-1.59-3.25-3.54.2-2.16,1.45-3.47,3.64-3.63,1.9-.14,3.21,1.43,3.15,3.54-.07,2.13-1.58,3.68-3.54,3.63Z"/>
  </g>
</svg>