<?xml version="1.0" encoding="UTF-8"?>
<svg id="Layer_2" data-name="Layer 2" xmlns="http://www.w3.org/2000/svg" viewBox="0 0 219.84 304.99">
  <g id="threeNuts">
    <path d="m170.18,150.2c-1.2.06-2.44.33-3.58.09-.71-.14-1.26-1.04-1.88-1.61.69-.5,1.53-1.53,2.04-1.39,1.36.39,2.56,1.29,3.83,1.99-.14.3-.27.61-.41.91Z"/>
    <path d="m185.05,176.47c-.99-1.18-1.97-1.83-2-2.53-.03-.65.94-1.35,1.47-2.02.62.55,1.65,1.03,1.76,1.67.12.7-.61,1.54-1.23,2.88Z"/>
    <path d="m193.31,231.55c-.75-1.53-1.25-2.58-1.76-3.63.75-.21,1.71-.83,2.2-.56,1.83.99.99,2.22-.44,4.19Z"/>
    <path d="m189.83,197.48c-1.41.56-2.18,1.16-2.77,1.02-.64-.16-1.12-1.01-1.67-1.56.58-.47,1.22-1.39,1.73-1.32.75.1,1.4.9,2.71,1.85Z"/>
    <path d="m198.85,215.23c.27-1.28.54-2.55.81-3.83.61.21,1.76.53,1.74.63-.23,1.22-.64,2.41-.99,3.6-.52-.13-1.04-.27-1.56-.4Z"/>
    <path d="m179.46,129.39c.78,1.19,1.46,1.79,1.49,2.41.02.52-.73,1.07-1.14,1.61-.61-.48-1.56-.88-1.71-1.47-.13-.53.64-1.28,1.36-2.55Z"/>
    <path d="m194.54,107.65c-.84.76-1.4,1.57-1.73,1.49-.61-.15-1.27-.75-1.53-1.33-.12-.27.67-1.33,1.04-1.33.6,0,1.19.59,2.22,1.18Z"/>
    <path id="bodypeanut" d="m39.87,103.8c-5.24-5.86-8.57-13.12-10.45-20.87-2.92-12-.82-23.67,3.62-35.02.96-2.46,1.76-4.99,2.59-7.5,4.92-14.94,13.99-26.22,28.8-32.24,6.04-2.46,12.28-4.45,18.5-6.43,2.41-.77,5-1.23,7.53-1.36,18.51-.91,36.96-.48,54.94,4.59,10.65,3.01,20.67,7.91,28.91,15.16,11.94,10.51,19.67,23.66,20.67,40.15.7,11.52.78,22.98-1.75,34.3-1.78,7.96-4.39,15.4-9.51,22.16-5.29,6.99-10.43,14-16.87,19.99-1.15,1.07-1.93,2.52-2.97,3.72-1.15,1.31-2.41,2.53-4.11,4.3.74,2.12,1.67,5.04,2.75,7.91,4.15,10.98,7.79,22.2,12.65,32.86,9.51,20.88,13.34,42.71,12.76,65.46-.18,7.02-1.47,13.87-3.89,20.48-4.18,11.41-12.35,18.87-23.22,23.78-7.39,3.34-15.06,5.67-23.1,6.57-10.43,1.17-20.88,2.36-31.35,3.04-14.02.9-27.58-2.32-41.06-5.64-8.22-2.02-16.36-4.4-24.54-6.56-12.84-3.39-22.78-10.62-29.53-22.12-4.03-6.87-8.17-13.73-9.94-21.58-3.33-14.81-.09-28.44,8.29-40.86,7.06-10.47,15.04-20.37,21.43-31.23,4.97-8.45,8.38-17.87,11.98-27.06,2.63-6.72,4.35-13.8,6.68-20.65.98-2.88,1.01-5.47-.51-8.12-2.54-4.45-4.81-9.06-9.82-11.45-.9-.43-1.83-1.9-1.79-2.85.03-.89,1.32-1.74,2.32-2.91Zm12.13,12.51c4.45,5.63,3.62,11.53,1.18,17.6-1.28,3.19-2.38,6.48-3.21,9.81-3.06,12.25-7.34,24.11-13.87,34.85-6.55,10.78-14.19,20.89-21.4,31.27-7.95,11.43-11.32,23.89-8.16,37.66,1.78,7.77,6.01,14.49,10.13,21.2,5.68,9.25,13.85,15.24,24.27,18.1,7.15,1.96,14.42,3.48,21.53,5.54,13.36,3.87,26.83,7.35,40.83,7.09,10.04-.19,20.08-1.27,30.1-2.2,8.21-.76,16.15-2.74,23.82-5.92,13.95-5.78,21.97-16.1,24.51-30.87,1.73-10.11,1.77-20.31.31-30.38-1.74-12.04-3.83-24.04-8.22-35.54-5.57-14.59-10.77-29.33-15.84-44.1-1.1-3.2-3-6.78.62-10.19,1.96-1.84,2.66-5.01,4.59-6.9,5.95-5.85,10.94-12.38,15.91-19.07,4.55-6.12,7.17-12.7,8.91-19.85,2.66-10.94,2.79-22.06,2.11-33.22-.97-15.99-8.4-28.83-20.45-38.66-5.85-4.78-12.98-8.37-20.05-11.19-12.22-4.88-25.24-6.69-38.39-6.96-7.59-.16-15.34-.67-22.75.59-7.84,1.33-15.56,4.07-22.96,7.09-13.47,5.49-22.03,15.76-26.38,29.6-.79,2.52-1.62,5.04-2.58,7.5-3.65,9.35-5.93,18.97-4.24,29.01,2.01,11.92,7.57,22.09,16.17,30.64,1.95,1.94,3.35,4.42,5.03,6.68-.41.23-.84.46-1.53.84Zm38.91-72.8c.1,4.9-.94,9.49-3.84,13.52-1.52,2.11-3.47,3.54-6.3,3.09-2.71-.43-4.73-2.8-4.55-5.65.33-5.18,1.47-10.13,4.59-14.45.44-.61,1.06-1.46.92-2.04-.44-1.83.24-3.3,1.79-3.56,1.57-.26,3.6,0,4.9.85,2.24,1.45,2.58,4.07,2.49,6.64-.02.53,0,1.06,0,1.59Zm-5.34-5.01c-2.99,2.38-6.33,12.86-5.18,16.2.18.51.95.81,1.45,1.21.27-.6.83-1.24.76-1.81-.4-3.32.2-6.38,2.4-8.9,2.12-2.42,2.38-3.74.56-6.7Zm39.62,20.46c1.2-4.65,2.38-9.31,3.59-13.95.5-1.91.65-4.35,3.47-4.01,1.32.16,2.95.89,3.73,1.9,3.81,4.98,3.88,15.1.4,20.34-2.05,3.08-4.22,4.03-7.12,3.11-2.39-.76-3.38-2.55-3.39-6.16,0-.35,0-.71,0-1.06-.22-.06-.45-.11-.67-.17Zm6.24,3.89c.3-4.46-.52-8.51,3.29-11.39.19-.15.23-.7.14-1-.58-1.89-1.22-3.76-1.86-5.69-.71.28-.99.32-1.17.48-.25.23-.57.52-.61.82-.58,4.97-1.18,9.94-1.57,14.92-.04.57,1.15,1.24,1.78,1.86Z"/>
    <path id="typo" d="m83.1,146.07c2.85,1.05,5.91,1.73,8.5,3.23,4.07,2.36,4.86,7.3,2,11.03-3.43,4.46-8.25,6.16-13.73,6.16-1.84,0-2.45-1.2-2.27-2.85.44-3.85.98-7.69,1.36-11.55.08-.81-.11-1.9-.61-2.47-1.33-1.52-.67-2.2.86-2.55,1.19-.28,2.43-.34,3.65-.49.08-.17.16-.34.23-.51Zm-1.31,16.48c1.46-.52,2.51-.75,3.41-1.24,2.56-1.4,5.4-2.75,5.47-6.19.04-2.24-3.28-4.23-7.27-4.74-.25-.03-.51.07-.86.12-.24,3.87-.48,7.73-.75,12.06Zm-1.7,40.27c.83.95,1.3,2.47,2.63,1.68.9-.53,1.6-2.08,1.66-3.21.22-3.87.19-7.76.08-11.64-.02-.88-.71-1.75-1.09-2.63-.69.74-1.8,1.38-2.01,2.24-.67,2.85-1.02,5.78-1.54,8.95-.48-.66-.93-1.09-1.15-1.62-1.29-3.08-2.46-6.22-3.85-9.27-.31-.67-1.33-1.03-2.02-1.53-.4.84-.9,1.64-1.18,2.52-.21.65-.08,1.39-.2,2.07-.54,3.22-1.27,6.41-1.59,9.65-.1,1.03.65,2.88,1.41,3.12,1.83.58,2.24-1.14,2.52-2.57.21-1.07.35-2.15.45-2.82,2.03,1.69,4.2,3.14,5.86,5.04Zm27.61.22c.74.64,2.19.45,3.31.64.09-.99.53-2.14.19-2.95-1.23-2.93-2.61-5.81-4.2-8.55-.52-.89-1.93-1.86-2.83-1.77-.81.08-1.71,1.46-2.15,2.46-.76,1.67-1,3.59-1.82,5.23-.7,1.4-1.89,2.56-2.86,3.82-.29-.09-.57-.18-.86-.27-.27-1.71-.59-3.41-.8-5.12-.24-1.92-.32-3.86-.6-5.78-.07-.5-.61-.93-.94-1.4-.43.38-1.17.72-1.23,1.14-.55,4.26-1.66,8.58.13,12.77,1.33,3.12,4.43,3.82,6.9,1.45,1.75-1.68,3.07-3.82,4.58-5.76,1.01,1.36,1.88,2.98,3.17,4.09Zm13.23,2.49c.2.79,1.78,1.22,2.73,1.82.29-1,.89-2.03.82-3.01-.19-2.69-.65-5.36-1.01-8.05.77-.21,1.1-.31,1.44-.39,1.33-.32,2.93-.74,2.39-2.44-.25-.79-1.73-1.47-2.76-1.68-2.76-.56-5.57-.92-8.38-1.18-.81-.08-1.68.45-2.52.69.45.84.68,2.02,1.38,2.45,1.4.87,3.04,1.33,4.18,1.8.59,3.65.95,6.87,1.73,9.98Zm-19.21-51.96c-.46-.81-1.34-1.37-2.03-2.05-.43.85-1.25,1.73-1.21,2.56.12,2.73.44,5.46.93,8.14.16.86.99,2.1,1.68,2.23.69.13,2.04-.73,2.35-1.47,1.24-2.99,3.13-4.82,6.51-4.95.55-.02,1.51-.67,1.52-1.05.01-.68-.41-1.81-.9-1.97-1.35-.43-2.88-.77-4.25-.55-1.3.21-2.48,1.17-3.95,1.91-.21-1-.21-2.03-.65-2.81Zm15.43,12.07c.21.7,1.1,1.45,1.84,1.63.35.09,1.41-1.03,1.44-1.63.03-.59-.84-1.23-1.6-2.23-.8,1.01-1.8,1.79-1.68,2.23Z"/>
    <path d="m198.85,28.82c1.69-1.48,3.15-.74,4.31.73,8.19,10.43,14.53,21.72,15.51,35.3.55,7.63,1.19,15.28,1.18,22.93,0,7.33-2.86,14.1-5.82,20.68-5.48,12.15-10.83,24.36-19.37,34.86-5.21,6.41-6.44,13.59-2.55,21.19,1.8,3.51,3.69,6.99,5.73,10.37,7.09,11.75,14.16,23.55,15.74,37.55,1.45,12.84.17,25.56-2.75,38.11-.94,4.03-2.18,7.98-3.33,11.95-.22.77-.63,1.5-1.03,2.2-.92,1.6-2.18,2.9-4.14,2.06-2.09-.9-1.53-2.7-1.08-4.43,1.98-7.65,4.36-15.24,5.74-23,1.82-10.23,2.39-20.63.03-30.9-2.52-10.95-8.36-20.41-13.77-30.09-3.14-5.63-6.15-11.42-8.39-17.44-1.92-5.15-.95-10.6,1.79-15.41,2.14-3.74,4.78-7.19,7.15-10.81,8.89-13.56,16.38-27.86,20.03-43.72,1.32-5.73.46-12,.32-18.02-.08-3.59-.73-7.16-1.08-10.74-.96-9.78-5.38-18.2-10.23-26.47-1.29-2.21-2.56-4.43-3.98-6.91Z"/>
  </g>
</svg>