<?xml version="1.0" encoding="UTF-8"?>
<svg id="Layer_2" data-name="Layer 2" xmlns="http://www.w3.org/2000/svg" viewBox="0 0 324.84 327.78" height="130px">
 <style>

  #face:hover { transform: scale(1.5); transform-origin: center;} 
 
</style>
  <g id="Layer_1-2" data-name="Layer 1">
    <path d="m203.13,136.24c7.15-8.97,15.64-13.08,27.13-9.72,11.04.42,21.94,2.4,30.21,10.68,15.11-13.78,40-20.28,54.77-2.54,3.87,4.27,4.57,9.9,5.22,15.48,1.55,9.29-4.47,16.04-10.1,22.3,6.33,6.07,13.76,11.26,14.02,20.68,1.56,14.45-.01,31.51-18.62,30.68,12.31,16.12,3.59,51.13-20.91,38.96,0,2.93-.1,5.86.05,8.78,1.65,4.21,11.4,6.05,8.62,11.59-4.03,3.85-9.9-3.94-13.43-5.99-4.78-5.44,3.07-15.16-2.73-19.74-3.55-2.73-8-6.46-12.49-3.71-4.52,3.1-8.98,6.12-14.27,7.79-.55.17-1.12,1.32-1.11,2.01-.02,4.54,1.44,9.57-1.08,13.7-2.53,3.23-13.04,23.57-13.81,10.05,4.5-8.7,12.37-13.85,10.52-24.75-9.64.09-19.14.51-26.87-7.78-9.02,25.12-24.01,44.95-47.12,58.2,3,2.34,8.84.86,12.88.78,14.29,6.79-24.2,13.85-19.6,2.95-15.77,5.46-31.71,7.44-48.06,3.44-2.28-.54-3,.88-2.98,2.36-.08,5.71-7.56,5.04-11.53,5.37-9.48-5.54,3.32-7.81,7.85-9.71-.01-.28-.02-.56-.03-.84-33.81-15.76-51.1-53.78-50.92-89.9-4.94,1.63-9.73,2.3-7.26,8.91.69,2.11,6.38,3.82,4.06,6.66-7.45,3.53-10.33-5.51-9.32-11.57-3.6-.25-7.07-.5-10.51-.74.44,5.6-2.74,8.58-6.95,11.28-1.41.99-3.02,1.86-4.33.16-3.9-5.53,18.6-9.94-1.67-18.29-19.57-8.93-15.6-32.54-17.19-50.26-.79-3.82,2.95-8.32.36-11.62-20.7-24.09,18.07-33.8,35.67-38.99-1.71-3.21-8.68-7.27-5.82-11.03,1.32-1.59,3.91-2.05,5.57-.17,11.05,14.65,5.17,12.02,24.26,13.99-1.99-6.47-3.43-12.86-5.9-18.82-12.56-34.58.27-81.2,35.99-96.2,37.12-19,83.15-12.87,109.67,20.92.77,1.16.12,3.78.98,4.81,14.75,15.82,13.51,40.77,10.42,60.64-2.13,13.67-12.2,25.61-14.29,39.08.22.05.44.1.66.15Zm-135.6-20.47c7.83,23.21,23.36,18.16,18.01,25.68-18.72,31-21.5,70.94-17.97,106.4,6.45,28.53,24.27,58.17,54.29,65.46,30.89,6.17,62.81-12.36,78.01-38.95,11.54-22.64,24.22-46.25,20.86-72.58-.47-16.42-8.53-29.96-17.62-43.15-3.02-4.56,1.37-5.81-1.99-10.78-10.66-15.62,2.18-30.1,7.28-45.21C226.21,47.15,182.53,0,125.94,7.8c-26.36,4.32-53.05,18.68-60.17,46.09-5.95,22.58-9.17,49.64,12.72,64.48-4.27,1.35-6.84-2.67-10.95-2.6Zm145.11,37.76c-1.84,2.22-.52,4.06.49,5.81,20.52,27.03,18.84,61.7,7.79,92.24,39.2,17.25,43.85-21.8,50.61-3.76.09-.26.19-.51.28-.77,9.18.69,21.26,18.01,28.94,7.23,5.44-10.24,4.6-25.45-6.66-31.53-2.83-2.31-1.25-6.54,2.68-6.03,19.33,0,20.21.25,20.74-19.66,1.1-20.52-21.7-16-15.67-25.01,2.36-2.99,4.78-5.95,7.33-8.77,13.96-18.18-5.68-37.89-25.43-32.63-7.56,2.37-14.28,6.15-20.49,10.99-3.22,2.51-5.56,2.03-8.73-.49-7.82-7.58-18.96-7.82-29.18-9.12-7.77-.93-17.43,4.88-19.15,12,1.84,3.29,2.11,7.62,6.45,9.5Zm-201.78,12.23c.44,12.12,2.02,24.02,3.44,36.04,1.32,12.72,15.78,18.59,26.41,22.05,7.3.67,17.77-1.83,19.24-10.35,1.23-12.96,2.92-26.06,5.56-38.77-18.59.12-36.69-2.2-54.65-8.98Zm40.06-35.31c-.45,4.49-.61,11.83-6.05,12.45-3.53-5.59,4.55-16.38-6.98-12.43-7.03,1.94-36.61,10.3-33.29,19.82,5.42,15.4,47.72,19.47,62,17.01.73-.17,1.74-.74,1.94-1.34,2.9-8.62,6.85-16.7,12.05-23.98-11.11-6.22-16.53-10.87-29.67-11.52Z"/>
    <path d="m101.98,246.92c-.6-.65-2.12-1.62-2.58-2.95-1.66-4.87-3.41-9.78-4.33-14.82-3.03-16.76-1.73-33.46,1.45-50.07.29-1.54,1.19-2.99,1.97-4.39.21-.37,1.06-.38,1.62-.56.12.55.37,1.11.33,1.66-1.16,18.79-1.99,37.56,2.2,56.13.78,3.44,1.99,6.79,2.83,10.22.76,3.09-.31,4.91-3.5,4.78Z"/>
    <path d="m202.89,206.6c-.87,11.01-4.88,22.5-10.37,33.55-.2.4-.43.93-.78,1.09-1.29.59-2.64,1.06-3.96,1.57-.35-1.3-1.26-2.77-.94-3.88,1.37-4.69,3.24-9.23,4.67-13.91,1.56-5.1,3.05-10.25,4.2-15.46,1.66-7.54-.23-14.57-3.78-21.25-.98-1.84-2.07-3.65-2.78-5.59-.3-.82.22-1.95.37-2.95.96.26,2.22.23,2.84.84,6.87,6.72,10.47,14.89,10.54,25.98Z"/>
    <path id="face" d="m139.72,113.15c-1.26-1.6-2.54-2.52-2.49-3.36.05-.84,1.35-2.03,2.28-2.22.6-.13,2.08,1.21,2.15,1.98.08.9-.95,1.89-1.94,3.6Zm-28.92-37.67c-4.82-.14-8.26,2.46-8.34,6.31-.08,3.6,3.22,7.11,6.68,7.1,3.73,0,7.84-3.84,7.9-7.38.06-3.46-2.49-5.92-6.23-6.03Zm67.45-.7c-3.45,0-6.88,3.69-6.92,7.43-.03,2.77,4.03,6.52,7.09,6.56,3.18.04,5.99-3.2,5.98-6.9-.01-3.94-2.74-7.09-6.15-7.1Zm-33.34,45.19c-2.22-.03-3.65.95-3.84,3.25-.19,2.24,1.68,4.29,3.85,4.35,2.24.07,3.45-1.25,3.49-3.81.04-2.5-1.13-3.76-3.5-3.79Zm14.09-11.81c-.15-.86-1.51-1.96-2.44-2.08-.62-.08-2,1.4-2.01,2.18,0,.9,1.14,1.81,2.3,3.43,1.1-1.69,2.29-2.73,2.15-3.54Zm-33.36,3.79c-.86.15-1.92,1.14-2.17,1.99-.14.5,1.09,1.94,1.77,1.99.82.06,1.73-.9,3.31-1.84-1.44-1.11-2.28-2.24-2.92-2.14Zm45.69,1.8c-1,.17-1.84,1.36-2.74,2.12.72.83,1.36,2.23,2.17,2.34.92.12,1.99-.92,3.91-1.93-1.7-1.36-2.64-2.65-3.34-2.53Z"/>
    <path d="m256.27,189.17c.45-5.34.94-12.3,1.67-19.22.18-1.75,1-3.48,1.75-5.11.26-.58,1.2-.84,1.83-1.25.36.67,1.01,1.34,1.03,2.01.03,1.71-.41,3.44-.34,5.15.62,15.75.19,31.62,5.23,46.88.25.77.43,1.58.53,2.39.26,2.15-.04,4.16-2.52,4.72-2.41.54-3.8-.89-4.37-3.07-1.14-4.38-2.54-8.74-3.17-13.21-.83-5.82-1.03-11.74-1.63-19.28Z"/>
    <path d="m282.89,175.38c-.03,2.92-2.19,4.93-4.83,4.86-2.17-.06-3.65-1.03-3.77-3.35-.12-2.34,2.33-4.32,5.24-4.35,2.23-.03,3.28,1.13,3.36,2.84Z"/>
    <path d="m237.93,171.4c1.93-.34,3,.6,3.13,2.59.14,2.02-1.92,3.83-4.35,3.86-2,.02-3.29-.89-3.4-2.99-.11-2.16,1.53-3.37,4.61-3.46Z"/>
    <path d="m33.95,185.67c-.09,2.29-2.43,4.6-4.46,4.51-2.05-.09-3.21-1.21-3.22-3.26-.01-2.07,2.38-3.94,4.8-3.92,1.9.02,2.81,1,2.89,2.67Z"/>
    <path d="m49.36,190.91c-1.94-.05-3.43-1.6-3.24-3.54.21-2.16,1.46-3.47,3.65-3.62,1.9-.13,3.21,1.44,3.14,3.55-.07,2.13-1.58,3.67-3.54,3.62Z"/>
  </g>
</svg>