<?xml version="1.0" encoding="utf-8"?>
<!-- Generator: Adobe Illustrator 27.1.0, SVG Export Plug-In . SVG Version: 6.00 Build 0)  -->
<svg version="1.1" id="Outline" xmlns="http://www.w3.org/2000/svg" xmlns:xlink="http://www.w3.org/1999/xlink" x="0px" y="0px"
	 viewBox="0 0 512 426.7" style="enable-background:new 0 0 512 426.7;" xml:space="preserve">
<path d="M448,222.4V192C448,86,362,0,256,0S64,86,64,192v30.4C10.1,246.1-14.4,309.1,9.4,363c17,38.6,55.1,63.6,97.3,63.7
	c23.6,0,42.7-19.1,42.7-42.7V256c0-23.6-19.1-42.7-42.7-42.7V192c0-82.5,66.9-149.3,149.3-149.3S405.3,109.5,405.3,192v21.3
	c-23.6,0-42.7,19.1-42.7,42.7v128c0,23.6,19.1,42.7,42.7,42.7c58.9-0.2,106.5-48.1,106.3-107C511.6,277.5,486.6,239.4,448,222.4z
	 M106.7,384L106.7,384c-35.3,0-64-28.7-64-64s28.7-64,64-64V384z M405.3,384V256c35.3,0,64,28.7,64,64S440.7,384,405.3,384z"/>
</svg>
