<?xml version="1.0" encoding="utf-8"?>
<!-- Generator: Adobe Illustrator 27.1.0, SVG Export Plug-In . SVG Version: 6.00 Build 0)  -->
<svg version="1.1" id="Capa_1" xmlns="http://www.w3.org/2000/svg" xmlns:xlink="http://www.w3.org/1999/xlink" x="0px" y="0px"
	 viewBox="0 0 460.7 512" style="enable-background:new 0 0 460.7 512;" xml:space="preserve">
<g>
	<path d="M8.6,384c17.6,30.6,56.8,41.1,87.4,23.5c0,0,0,0,0.1,0l9.5-5.5c17.9,15.3,38.5,27.2,60.8,35.1V448c0,35.3,28.7,64,64,64
		s64-28.7,64-64v-10.9c22.2-7.9,42.8-19.8,60.8-35.1l9.5,5.5c30.6,17.7,69.8,7.2,87.5-23.5c17.7-30.6,7.2-69.8-23.5-87.5l0,0
		l-9.5-5.5c4.3-23.2,4.3-47,0-70.2l9.5-5.5c30.6-17.7,41.1-56.8,23.5-87.5c-17.7-30.6-56.8-41.1-87.5-23.5l-9.5,5.5
		c-17.9-15.3-38.5-27.2-60.8-35V64c0-35.3-28.7-64-64-64s-64,28.7-64,64v10.9c-22.2,7.9-42.8,19.8-60.8,35.1l-9.5-5.5
		C65.4,86.9,26.3,97.4,8.6,128S1.4,197.8,32,215.5l0,0l9.5,5.5c-4.3,23.2-4.3,47,0,70.2l-9.5,5.5C1.5,314.3-9,353.4,8.6,384z
		 M230.3,170.7c47.1,0,85.3,38.2,85.3,85.3s-38.2,85.3-85.3,85.3S145,303.1,145,256S183.2,170.7,230.3,170.7z"/>
</g>
</svg>
