<?xml version="1.0" encoding="UTF-8"?>
<svg id="squirrel" data-name="Layer 2" xmlns="http://www.w3.org/2000/svg" viewBox="0 0 525.8 383.9">
  <g id="threeNuts">
    <path id="circle" d="m270.96,383.88c-24.21-.01-43.59-2.02-62.94-4.89-14.88-2.21-29.09-6.11-43.36-10.06-9.69-2.68-18.83-6.35-27.96-10.07-9.97-4.07-19.69-8.5-28.79-13.85-4.78-2.81-9.6-5.56-14.35-8.4-3.51-2.1-7.03-4.19-10.35-6.48-4.21-2.91-8.32-5.93-12.3-9.07-3.08-2.43-6.01-5.02-8.79-7.69-6.59-6.3-13.35-12.5-19.48-19.11-5.26-5.67-10.13-11.67-14.47-17.87-4.16-5.94-7.76-12.21-11-18.55C8.47,240.74,2.42,223,.45,204.4c-.39-3.67-.27-7.38-.37-11.07-.35-13.39.29-26.73,4.36-39.74,2.56-8.18,6.1-16.14,8.85-24.27,2.47-7.3,6.97-13.78,11.03-20.44,2.31-3.78,4.83-7.49,7.55-11.07,2.26-2.98,5.03-5.68,7.46-8.57,11.07-13.21,24.28-24.74,38.96-35.12,2.22-1.57,4.62-2.96,6.8-4.57,3.2-2.36,6.16-4.96,9.45-7.23,2.23-1.54,4.82-2.72,7.29-4,6.09-3.17,12.01-6.61,18.35-9.38,9.62-4.21,19.38-8.26,29.37-11.79,7.63-2.7,15.67-4.63,23.61-6.67,6.77-1.74,13.58-3.51,20.51-4.64C219.86,1.57,246.24-.93,272.99.32c14.96.7,29.72,2.59,44.49,4.67,15.37,2.16,29.95,6.4,44.64,10.51,9.32,2.61,18.03,6.28,26.83,9.81,9.86,3.96,19.42,8.37,28.39,13.64,5.16,3.03,10.49,5.87,15.46,9.1,6.5,4.22,12.84,8.63,19.01,13.19,4.54,3.36,8.8,7.01,12.99,10.69,3.7,3.26,7.16,6.72,10.65,10.15,2.7,2.65,5.47,5.27,7.87,8.12,4.86,5.78,9.89,11.51,14.11,17.62,4.28,6.19,8.06,12.67,11.37,19.27,8.81,17.57,15.03,35.8,16.48,54.89,1.54,20.3-.1,40.42-7.53,59.96-1.73,4.56-4.05,8.96-5.61,13.56-2.3,6.8-6.49,12.84-10.24,19.06-2.43,4.02-5.11,7.95-7.97,11.77-2.16,2.88-4.85,5.47-7.17,8.27-11.07,13.37-24.23,25.13-39.04,35.57-6.7,4.72-13.6,9.31-20.82,13.45-7.61,4.37-15.52,8.43-23.65,12.07-8.88,3.98-17.94,7.83-27.33,10.81-15.04,4.77-30.23,9.4-46.11,11.85-20.94,3.24-42,5.8-58.84,5.52ZM253.48,6.04c-32.27.43-63.57,5.33-93.91,14.52-7.65,2.32-15.21,4.95-22.54,7.92-7.27,2.95-14.19,6.5-21.26,9.79-2.48,1.15-5.03,2.22-7.42,3.5-5.49,2.92-10.21,6.89-16.57,8.65-.63.17-1.22.56-1.74.93-3.98,2.86-8.01,5.66-11.88,8.62-4.37,3.33-8.65,6.75-12.85,10.23-3.29,2.72-6.47,5.54-9.55,8.43-1.74,1.63-3.19,3.47-4.76,5.22-4.11,4.56-8.42,9-12.28,13.71-5.9,7.19-10.86,14.86-15.04,22.86-4.24,8.1-8.62,16.16-10.72,24.93-1.53,6.4-3.7,12.71-4.93,19.15-4.64,24.22-1.69,48.05,6.21,71.5,3.72,11.04,9.39,21.47,15.86,31.55,4.19,6.53,9.1,12.73,13.81,19.02,1.04,1.39,2.65,2.46,3.86,3.77,2.5,2.71,4.73,5.59,7.38,8.19,4.15,4.07,8.35,8.14,12.91,11.88,5.43,4.46,11.2,8.63,16.92,12.83,3.77,2.77,7.59,5.5,11.62,7.99,5.01,3.1,10.13,6.09,15.42,8.84,11.78,6.12,23.8,11.91,36.57,16.5,5.17,1.86,10.27,3.9,15.58,5.43,8.79,2.53,17.66,4.93,26.62,7.01,20.74,4.82,41.9,7.47,63.4,8.34,33,1.34,65.2-2.59,96.85-10.2,14.39-3.46,28.18-8.31,41.44-14.08,9.4-4.09,18.5-8.7,27.53-13.37,10.24-5.29,19.65-11.57,28.51-18.38,5.55-4.27,10.83-8.81,16.02-13.39,2.8-2.47,5.08-5.34,7.76-7.92,5.14-4.95,9.89-10.15,14.06-15.71,2.17-2.9,4.64-5.69,6.42-8.75,4.53-7.78,8.91-15.63,13.03-23.57,3.6-6.95,5.67-14.33,7.68-21.71,7.27-26.66,5.94-53.14-2.37-79.43-3.79-11.97-9.66-23.31-16.58-34.23-3.46-5.47-7.33-10.76-11.26-16.01-1.86-2.49-4.29-4.67-6.48-6.98-3.38-3.58-6.65-7.26-10.2-10.72-3.81-3.71-7.74-7.34-11.91-10.77-4.99-4.11-10.2-8.03-15.46-11.9-3.99-2.94-8.1-5.79-12.34-8.47-4.05-2.56-8.21-5.02-12.54-7.22-8.44-4.28-16.8-8.74-25.61-12.41-10.2-4.25-20.77-7.93-31.35-11.49-5.83-1.96-12-3.21-18.05-4.67-5.85-1.41-11.71-2.83-17.64-3.96-22.44-4.28-45.17-6.24-68.18-5.98Z"/>
    <path id="squir3" d="m375.31,182.43c.83.56,1.25.89,1.7,1.14,11.85,6.58,22.28,14.96,31.17,25.16,3.02,3.46,5.42,7.46,8.01,11.28.43.63.79,1.87.47,2.37-1.46,2.26-.56,4.58-.17,6.71,1.71,9.36-4.12,15-12.71,16.47-5.52.94-11.06.82-16.54-.5-.43-.1-.89-.13-1.4-.21,2.44,4.03,4.91,7.88,7.16,11.85,3.64,6.43,4.4,13.61,4.64,20.76.18,5.17-3.91,8.2-7.38,11.21-6.73,5.83-17.23,5.29-23.5,1.76-1.2-.67-2.6-1.41-3.27-2.5-2.91-4.73-7.89-6.31-12.58-7.46-17.25-4.23-34.21-9.81-52.22-10.52-15.02-.59-30.01-1.9-45.01-2.99-6.54-.48-13.05-1.27-19.58-1.81-15.55-1.29-30.93-.09-46.26,2.79-12.13,2.28-23.25,7.73-35.13,10.64-13.03,3.19-24.18,10.32-35.83,16.39-6.11,3.18-12.17,6.65-19,7.64-7.67,1.11-15.47,1.41-23.23,1.74-1.64.07-3.78-.89-4.94-2.09-6.55-6.79-11.44-14.38-9.85-24.48.61-3.9,2.3-7.32,4.8-10.36.56-.68,1.1-1.39,1.37-2.46-1.56.58-3.11,1.2-4.69,1.73-9.03,3.03-20.29-2.94-22.42-12.24-1.1-4.78-.36-9.66,1.43-14.31,5.1-13.27,13.48-24.25,24.24-33.29,8.49-7.14,17.53-13.61,26.32-20.39.3-.23.6-.46,1.08-.82-2.02-2.1-4.11-4.02-5.87-6.2-2.12-2.63-4.45-5.26-5.81-8.28-4.81-10.68-9.67-21.39-12.34-32.86-1.18-5.07-1.14-10.23,1.26-15.14.94-1.93,2.33-2.93,4.38-3.32,1.73-.33,3.46-.78,5.12-1.38,2.63-.96,4.8-2.5,6.67-4.73,9.96-11.89,22.03-21.07,36.35-27.1,3.05-1.28,5.7-2.43,8.24-5.02,5.57-5.7,12.52-9.73,20.6-11.19,1.48-.27,3.13-.31,4.57.06,5.87,1.49,6.87,6.2,4.91,11.76-.59,1.68-1.98,3.07-3.14,4.79,2.31,1.6,4.64,3.32,7.08,4.87,3.65,2.31,6.64,5.24,9.02,8.84,3.83,5.78,7.71,11.53,11.71,17.49,1.36-.69,2.78-1.62,4.33-2.16,2.6-.9,5.24-1.77,7.94-2.24,2.42-.42,4.36.9,5.55,3.01,1.16,2.07.47,3.95-.83,5.79-3.3,4.66-6.5,9.39-11.14,12.9-.58.44-1.16,1.43-1.1,2.1.5,5.17-.44,10.14-1.77,15.08-.03.13.06.29.2.87,46.07-7.08,91.46-3.65,136.2,10.65,1.69-5.11,3.1-9.82,4.81-14.42,1.36-3.66,2.81-7.35,4.72-10.75,2.94-5.24,6.05-10.41,9.53-15.3,9.37-13.14,22.47-21.66,36.76-28.41,8.9-4.2,17.9-8.47,27.28-11.29,11.6-3.49,23.82-4.08,35.69-1.22,5.71,1.37,11.24,4.32,16.29,7.46,12.15,7.54,21.5,17.61,26.49,31.38,3.25,8.95,2.86,17.17-3.21,24.84-4.26,5.38-8.46,10.66-14.27,14.66-8.86,6.1-18.27,7.58-28.62,5.52-10.07-2-20.37-2.34-30.39-.68-10.19,1.68-19.94,5.39-28.47,11.56-1.85,1.34-3.43,3.06-5.41,4.87Zm-52.78-13.02c-.79-.26-1.44-.51-2.1-.67-10.15-2.58-20.27-5.23-30.45-7.69-15.33-3.7-30.9-5.87-46.67-6.16-18.37-.35-36.69.58-54.92,3.09-2.1.29-2.97,1.14-3.71,3.03-1.78,4.49-3.19,9.36-5.96,13.19-7.81,10.78-18.34,17.93-31.49,20.83-3.38.75-6.85,1.08-10.26,1.68-14.02,2.48-26.88-1.39-39.31-7.34-1.72-.82-2.86-.9-4.36.16-13.48,9.47-27.07,18.69-38.02,31.36-4.06,4.7-6.96,9.75-9.2,15.28-1.51,3.73-2.13,7.82-3.09,11.77-1.97,8.08,8.84,16.73,16.73,13.26,7.12-3.13,14.3-6.11,21.41-9.25,2.39-1.05,4.66-2.38,6.99-3.56,1.38-.7,2.98-.81,3.61.7.39.94-.18,2.36-.56,3.49-.16.49-.89.82-1.4,1.16-3.56,2.29-7.06,4.7-10.73,6.82-5.76,3.32-9.01,8.74-12.14,14.22-.88,1.54-1.24,3.47-1.52,5.26-.88,5.7,2.46,9.95,5.2,14.38,1.93,3.11,4.63,4.5,8.39,3.98,1.89-.26,3.85.01,5.78-.01,7.39-.1,14.69-1.13,21.41-4.19,7.63-3.48,14.92-7.72,22.49-11.36,5.68-2.73,11.47-5.27,17.37-7.46,8.08-3,16.33-5.55,24.48-8.38,16.4-5.69,33.36-8.42,50.63-8.53,11.31-.07,22.64,1.04,33.94,1.82,15.16,1.05,30.31,2.12,45.44,3.5,8.51.78,17.03,1.84,25.42,3.42,7.7,1.44,15.26,3.7,22.85,5.7,3.19.84,6.48,1.62,9.44,3.02,6.17,2.92,13.03,4.56,18.22,9.35,1.75,1.62,3.55,1.67,5.52.82,1.2-.51,2.47-1.05,3.42-1.9,2.84-2.54,6-4.82,5.46-9.5-.9-7.89-2.49-15.46-7.03-22.22-1.77-2.63-3.77-4.73-6.42-6.47-2.22-1.46-4.09-3.49-5.96-5.41-.46-.47-.55-1.57-.38-2.27.1-.42,1.26-1.02,1.61-.85,1.67.79,3.02.23,4.5-.49.63-.3,1.53-.17,2.28-.04,4.1.69,8.17,1.73,12.3,2.08,4.49.38,9.05.47,13.53.06,2.93-.27,5.51-2.22,5.93-5.4.74-5.65.28-11.31-3.24-16.04-9.56-12.86-22.02-22.33-35.93-30.04-1.24-.69-1.94-.23-2.83.52-5.9,4.91-8.48,11.8-10.95,18.67-.9,2.5-1.61,4.47-4.75,4.21-.61-.05-1.28.46-1.91.74-8.12,3.57-16.07,3.56-23.53-1.55-5.12-3.51-9.21-8.08-9.14-14.71.05-4.82.91-9.65,1.58-14.44.53-3.8,1.33-7.56,2.05-11.59Zm2.39,20.64c-.62.77-1.5,1.36-1.48,1.93.09,3.16.41,6.21,2.58,8.89,5.06,6.25,11.64,8.44,19.31,7.29,2.57-.38,5.46-1.03,6.74-4.11,1.72-4.11,3.43-8.25,5.55-12.15,1.34-2.46,3.25-4.7,5.23-6.72,2.92-2.98,6.1-5.71,9.22-8.49,2.35-2.09,4.58-4.41,7.21-6.08,8.82-5.6,18.58-9.36,28.76-10.95,10.73-1.67,21.72-.93,32.46,1.07,9.03,1.68,17.15.54,24.78-4.99,4.31-3.12,7.25-7.26,10.62-11.15,6.15-7.09,6.13-14.53,2.68-23-4.87-11.96-13.3-20.46-23.93-27.02-4.22-2.6-8.8-5.12-13.56-6.24-10.19-2.4-20.76-1.91-30.71.79-17.14,4.65-32.93,12.6-47.29,23.12-4.26,3.12-8.19,6.84-11.7,10.78-11.01,12.38-17.57,27.22-22.53,42.8-2.05,6.45-3.47,13.09-5.25,19.63-.51,1.87-.56,3.5,1.31,4.59Zm-251.51-58.84c-.07.02-.15.05-.22.07.55,2.31.83,4.72,1.7,6.9,2.3,5.79,5.1,11.4,7.22,17.25,1.69,4.65,4.2,8.66,7.17,12.55,1.29,1.69,1.77,3.99,2.64,6,.27.62.46,1.39.93,1.78,3.26,2.66,6.23,6.16,9.99,7.65,6.89,2.72,14.15,4.81,21.45,6.06,4.56.78,9.47-.45,14.22-.8,11.83-.89,21.83-5.84,30.02-14.24,2.69-2.76,4.89-6.17,6.62-9.63,1.86-3.74,2.93-7.88,4.31-11.86,1.65-4.76,2.94-9.55,2.27-14.7-1.15-8.83-3.26-17.27-9-24.39-.82-1.01-1.55-2.14-2.12-3.3-4.43-8.95-12.05-14.51-20.56-18.93-3.75-1.94-7.7-4.09-12.32-2.57-.52.17-1.25-.33-1.89-.51-.78-.22-1.63-.73-2.35-.59-12.32,2.27-22.15,9.12-31.62,16.87-6.05,4.96-10.19,11.9-16.97,16-2.8,1.69-5.67,3.43-8.73,4.5-2.06.71-2.66,1.77-2.74,3.6-.03.77,0,1.54,0,2.31Zm61.55-47.67c.9-.15,1.87-.13,2.68-.47,4.33-1.84,8.4-.77,12.51.81,3.29,1.27,3.32,1.18,5.17-1.9.16-.26.41-.52.44-.8.18-1.68.93-3.66.3-4.97-.85-1.76-3.06-1.67-4.97-1.25-6.12,1.35-11.34,4.46-16.13,8.58Zm53.34,46.73c4.45-2.96,6.82-7.16,9.78-11.51-4.47.01-7.86,1.79-11.28,3.44-.28.13-.44.95-.33,1.38.53,2.16,1.16,4.29,1.83,6.69Zm262.17-9.69c-1.35-.96-3.54-1.34-5.23-1.1-3.94.55-7.17,2.7-9.69,5.79-.51.62-.83,1.47-.99,2.26-.08.37.43.85.68,1.28.35-.22.69-.45,1.05-.66,2.55-1.49,5.03-3.12,7.68-4.42,2.08-1.02,4.11-.31,5.19,1.66,1.61,2.94,2.9,6.06,4.27,9.13.43.98.41,2.28,1.07,3,.72.78,2.06,1.56,2.98,1.41.86-.14,1.53-1.48,2.11-2.1-1.52-6.77-3.81-12.45-9.13-16.24Zm-76.83,6.75c.58-.78,1.04-1.7,1.76-2.32,5.14-4.43,10.88-7.77,17.49-9.52,2.96-.78,5.65-.36,8.06,1.55,1.75,1.39,3.36,3,5.26,4.13.9.53,2.65.63,3.45.1,1.29-.87.84-2.45-.23-3.41-4.45-3.98-9.14-7.37-15.7-6.02-8.24,1.7-14.56,6.4-19.93,12.58-.57.65-.54,1.83-.78,2.76.21.05.42.1.63.15Zm-22.05,34.57c.37-.63.59-1.5,1.13-1.83,2.94-1.82,5.89-3.63,8.97-5.2,2.03-1.03,4.04-.61,5.69,1.13.95,1.01,1.85,2.14,3.01,2.84.68.41,2.13.44,2.66-.02.55-.48.78-1.88.51-2.65-.99-2.85-6.62-6.09-9.69-5.61-5.41.85-9.38,4.09-12.69,8.18-.57.7-.33,2.05-.46,3.1l.88.06Zm55.56-18.93c4.04-1.56,4.67-1.14,7.29,2.35.78,1.04,1.94,1.9,3.1,2.5.41.21,1.55-.42,1.96-.97.27-.35-.04-1.34-.35-1.88-.65-1.13-1.43-2.2-2.25-3.21-1.51-1.86-3.32-3.39-5.88-3.05-4.72.63-8.82,2.65-12.01,6.23-.56.63-.62,1.71-.86,2.45,3.31-1.65,6.06-3.29,8.99-4.42Zm-261.11-.58c-.03,2.18,1.42,3.72,3.49,3.69,2.2-.03,4.26-2.1,4.28-4.3.01-1.9-1.32-3.11-3.45-3.13-2.54-.03-4.27,1.48-4.31,3.74Zm-24.84-24.03c-2.02.02-3.77,1.73-3.74,3.63.04,1.99,1.78,3.53,3.86,3.41,1.98-.12,3.36-1.54,3.31-3.42-.06-2.04-1.58-3.64-3.43-3.62Z"/>
  </g>
</svg>