<?xml version="1.0" encoding="UTF-8"?>
<svg id="cup" data-name="Layer 2" xmlns="http://www.w3.org/2000/svg" viewBox="0 0 136.47 227.39" height="120px">
  <defs>
    <style>
      .cls-1 {
        fill: #faebd7;
      }
      
  
  #color:hover { fill: #BE5BDE;} 
  
</style>

<script>
    let theReal= document.querySelector ("#rec");

    function logMyId() {
       console.log('clicked on this element:', this.id);}

    theReal.addEventListener('click', logMyId);
    </script>
    
  </defs>
  <g id="arcon1">
    <path d="m54.1,56.02c.1-5.5,2.5-8.77,6.44-8.79,3.17-.02,4.41,2.39,4.25,8.56,3.18.73,6.41,1.46,10.08,2.3.48-2.66.81-5.24,1.44-7.74,2.47-9.81,3.29-20.04,7.83-29.33,1.07-2.2,1.33-4.89,1.54-7.39.31-3.66,2.13-5.8,5.29-7.57,4.99-2.8,10.39-2.76,15.78-3.31,7.55-.77,15.07-1.88,22.62-2.73,2.44-.27,6.58,2.98,6.89,5.41.55,4.25.3,8.38-3.39,11.36-.59.48-1.63.54-2.47.56-5.94.19-11.99-.26-17.79.75-2.45.43-4.43.85-6.91.25-2.45-.59-4.13.53-5.13,3.44-3.17,9.21-7.11,18.15-10.18,27.39-1.4,4.24-1.42,8.93-2.13,13.4-.28,1.75.44,2.8,1.75,3.92,2.9,2.47,5.63,5.14,8.36,7.8,5.71,5.56,8.43,12.51,9.63,20.28.47,3.09,1.22,6.05.63,9.25-.36,1.92.31,4.05-2.3,4.93-.35.12-.5,1.26-.5,1.93.1,12.47-3.59,23.94-9.1,34.95-3.46,6.9-6.89,13.76-12.46,19.36-8.46,8.53-23.33,10.53-33.4,6.13-11.09-4.84-21.29-10.98-29.28-20.26-3.22-3.74-5.74-7.9-6.91-12.81-.76-3.17-1.8-6.27-2.84-9.36-1.91-5.63-2.35-11.33-.92-16.93-2.29-1.53-4.43-2.86-6.46-4.34-1.89-1.37-2.42-3.25-1.76-5.54,4.2-14.58,11.18-27.11,23.9-36.28,7.8-5.62,16.31-8.03,25.5-9.11.54-.06,1.08-.14,1.61-.22.08-.01.14-.1.39-.29ZM14.01,112.1c-.97,5.6.08,10.79,1.89,15.87,2.58,7.23,4.57,14.69,10.24,20.45,8.38,8.51,18.33,14.5,29.38,18.64,5.17,1.94,10.76,1.7,16.03-.24,6.09-2.24,10.76-6.36,14.06-11.9,5.96-10.02,10.96-20.48,13.45-31.95.8-3.7,1.06-7.52,1.56-11.29-.27-.16-.53-.32-.8-.49-8.95,4.56-18.53,4.8-28.19,4.59-.27,0-.54.05-.82.04-11.78-.43-23.56-.69-35.32-1.38-7.12-.42-14.21-1.53-21.49-2.34ZM87.84,21.84c-5.4,11.7-6.42,24.7-9.78,37.1,2.21,1.07,4.03,1.96,6.4,3.12.22-12.95,5.21-24.23,9.32-34.94-2.28-2.02-4.04-3.59-5.94-5.27Zm38.62-8.69c0-2.15-.25-4.33.06-6.43.39-2.63-.75-3.4-3-3.04-5.51.89-11,1.9-16.77,2.92.63,2.23,1.05,4.17,1.76,5.99.25.63,1.24,1.41,1.87,1.39,5.41-.19,10.82-.54,16.07-.83Zm-23.05-6.72c-2.6.48-5.13.87-7.62,1.45-.55.13-1.44,1.05-1.34,1.35.87,2.83,1.92,5.6,2.8,8.07,2.6-1.34,4.62-2.39,6.82-3.53-.17-1.91-.38-4.22-.66-7.33ZM24.46,94.22c.19,1.05.17,2.02.56,2.78.26.51,1.1.94,1.71.97.47.02,1.36-.59,1.39-.98.19-2.32.26-4.66.19-6.99-.02-.63-.7-1.23-1.07-1.85-.58.47-1.47.83-1.68,1.43-.54,1.52-.77,3.15-1.1,4.63Zm72.37,7.94c1.9-.27,2.6-1.48,2.03-2.87-.8-1.96-2.01-3.77-3.21-5.52-.3-.43-1.26-.41-1.91-.59-.11.73-.53,1.6-.28,2.18,1.01,2.31,2.22,4.52,3.37,6.81Zm-50.89-30.33c-2.59,1.68-3.46,9.42-1.74,10.43.5.3,2.29-.39,2.29-.61-.05-3.14-.31-6.28-.54-9.82Zm36.88,9.73c-1.47-2.03-2.75-3.92-4.18-5.68-.23-.29-1.31-.26-1.67.03-.35.28-.52,1.19-.34,1.65.65,1.67,1.39,3.32,2.3,4.85.36.61,1.33,1.34,1.87,1.23.64-.12,1.12-1.09,2.02-2.09Zm12.44-59.4c-1.54-4.18-2.94-7.99-4.31-11.71-1.07.74-.97,5.26.66,8.47.81,1.61,1.47,3.79,3.65,3.24Zm-29.26,75.65c-.84-1.38-1.41-2.55-2.22-3.51-.23-.28-1.14.02-1.74.05.07,1.18.14,2.36.22,3.54.01.18.02.41.13.52.58.58,1.2,1.13,1.8,1.69.54-.68,1.08-1.36,1.82-2.28ZM131.27,5.28c-1.67,2.75-1.45,4.99.76,6.64.4-2.38,1.31-4.55-.76-6.64Z"/>
    <path id="font" d="m1.74,192.3c1.22.55,2.4,1.26,3.68,1.63,3.29.96,6.71,1.54,9.93,2.7,6.37,2.3,8.79,7.93,5.85,13.97-3.19,6.55-7.93,11.43-15.64,12.47-.61.08-1.13.72-1.74.99-.77.33-1.72.93-2.35.71-.62-.21-1.28-1.27-1.35-2.01-.18-2.16-.08-4.34-.08-6.51,0-6.89-.06-13.77.04-20.66.02-1.29.64-2.58.98-3.87.23.19.46.38.69.57Zm1.33,4.49c.56,7.66,1.07,14.67,1.61,22.05,5.98-1.91,9.65-5.35,12.06-10.13,1.77-3.51.9-6.21-2.68-7.83-3.43-1.55-7.06-2.65-10.99-4.1Zm78.28,24.41c.27.18.34.67.61.85.7.45,1.75,1.31,2.13,1.09.69-.39,1.37-1.45,1.39-2.25.06-2.07-.11-4.17-.41-6.22-.5-3.4-1.06-6.81-1.86-10.15-.21-.88-1.42-1.52-2.18-2.27-.47.88-1.22,1.73-1.34,2.66-.16,1.23.17,2.52.29,3.78.22,2.33.44,4.67.72,7.63-.94-.88-1.39-1.19-1.71-1.6-2.2-2.87-4.31-5.82-6.59-8.62-.61-.75-1.65-1.32-2.6-1.53-.38-.09-1.46.99-1.48,1.58-.23,5.24-.4,10.5-.3,15.74.02.83,1.45,1.64,2.23,2.45.59-.9,1.58-1.75,1.68-2.7.25-2.3.08-4.64.08-6.6,3.28,2.17,6.31,4.15,9.32,6.17Zm24.68-1.24c.87.76,2.25.94,3.4,1.38.09-1.24.54-2.6.2-3.71-1.07-3.45-2.49-6.79-3.67-10.21-.51-1.49-1.16-3.05-2.89-2.45-.94.32-1.67,1.83-2.08,2.96-.72,2.02-.98,4.21-1.74,6.22-.29.79-1.4,1.75-2.13,1.75-.71,0-1.85-1.02-2.06-1.8-.77-2.85-1.19-5.8-1.83-8.69-.17-.76-.62-1.47-.94-2.2-.61.65-1.7,1.27-1.74,1.96-.18,2.58-.3,5.23.08,7.78.45,3.02,1.7,5.94,4.92,6.97,3.37,1.07,5.43-1.13,7.18-3.62.03-.05.16-.04.41-.08.9,1.23,1.68,2.72,2.86,3.76Zm18.09-15.42c.72-.77,1.23-1.75,1.82-2.64-.99-.33-1.99-.94-2.98-.93-2.7.04-5.42.25-8.1.6-.82.11-1.56.88-2.33,1.34.56.82.95,2.01,1.73,2.39,1.24.6,2.73.65,4.15.95.04.76.04,1.39.1,2.02.38,4.05.64,8.11,1.21,12.13.22,1.57,1.02,3.41,3.16,2.99,2.23-.44,1.33-2.39,1.35-3.82,0-.35-.15-.71-.2-1.07-.62-4.28-1.23-8.57-1.86-12.92.72-.36,1.5-.55,1.95-1.04Zm-90.79,2.48c-.67-.88-1.71-1.58-2.73-2.04-.45-.2-1.43.21-1.85.66-.3.33-.33,1.38-.03,1.72,3.16,3.55,3.76,7.55,2.75,12.1-.2.89,1.1,2.11,1.71,3.18.94-.78,2.42-1.38,2.72-2.35,1.72-5.46,2.31-5.98,7.83-6.23.89-.04,1.75-.76,2.62-1.17-.67-.84-1.16-2.04-2.04-2.46-2.93-1.41-5.81-.69-8.64.9-.87-1.63-1.43-3.09-2.35-4.3Z"/>
    <path id="color" class="cls-1" d="m14.01,112.1c7.29.82,14.37,1.92,21.49,2.34,11.76.69,23.55.95,35.32,1.38.27.01.54-.05.82-.04,9.65.21,19.24-.03,28.19-4.59.27.16.53.32.8.49-.51,3.77-.76,7.59-1.56,11.29-2.49,11.47-7.49,21.93-13.45,31.95-3.3,5.55-7.97,9.66-14.06,11.9-5.27,1.94-10.85,2.18-16.03.24-11.04-4.14-21-10.13-29.38-18.64-5.67-5.76-7.67-13.23-10.24-20.45-1.81-5.08-2.86-10.27-1.89-15.87Zm60.17,39.26c1.98,0,3.97.12,5.94-.03,1.93-.15,2.85-1.83,1.67-3.23-1.58-1.89-3.51-3.49-5.28-5.21-1.49,1.75-3.15,3.39-4.42,5.29-1.33,2-.32,3.53,2.09,3.19Zm-13.59,9.74c-.4,0-.11.05.14,0,1.33-.3,2.66-.63,3.99-.95-.48-1.37-.95-2.74-1.43-4.11-.06-.16-.2-.3-.3-.45q-3.42-5.16-6.26.26c-2.65,5.03-2.36,5.51,3.86,5.26Zm26.21-19.39c2.01-2.04,6.12.29,5.66-3.46-.25-2.1-2.76-4.14-4.66-5.72-.84-.7-3.47,3.88-3.12,6.41.13.9,1.23,1.66,2.11,2.76Z"/>
    <path d="m54.31,227.35c-.69-1.14-1.99-2.35-1.89-3.42.09-.99,1.58-2.4,2.65-2.62,1.7-.33,3.07,1.05,2.78,2.77-.2,1.19-1.44,2.21-2.22,3.3-.44-.01-.88-.03-1.32-.04Z"/>
    <path id="pattern" d="m74.18,151.36c-2.41.34-3.42-1.19-2.09-3.19,1.27-1.9,2.93-3.54,4.42-5.29,1.78,1.72,3.7,3.33,5.28,5.21,1.17,1.4.26,3.07-1.67,3.23-1.97.16-3.96.03-5.94.03Zm-13.44,9.73c1.33-.3,2.66-.63,3.99-.95-.48-1.37-.95-2.74-1.43-4.11-.06-.16-.2-.3-.3-.45q-3.42-5.16-6.26.26c-2.65,5.03-2.36,5.51,3.86,5.26-.4,0-.11.05.14,0Zm31.73-22.84c-.25-2.1-2.76-4.14-4.66-5.72-.84-.7-3.47,3.88-3.12,6.41.13.9,1.23,1.66,2.11,2.76,2.01-2.04,6.12.29,5.66-3.46Z"/>
  </g>
</svg>