<?xml version="1.0" encoding="UTF-8"?>
<svg id="nuts" data-name="Layer 2" xmlns="http://www.w3.org/2000/svg" viewBox="0 0 233.11 81.35" height="70px">
<style>
 #peanut:hover { transform: rotate(80deg); transform-origin: center;}
</style>

<script>
    let theReal= document.querySelector ("#peanut");

    function logMyId() {
       console.log('clicked on this element:', this.id);}

    theReal.addEventListener('click', logMyId);
    </script>
  <g id="threenuts">
    <path id="peanut" d="m96.09,30.34c-4.3-4.55-4.76-10.09-4.58-15.71.04-1.37.91-2.88,1.79-4.02,11.18-14.4,35.4-14.86,45.09,3.03,3.4,6.28,4.74,17.34-3.16,24.09-.53.45-.94,1.03-1.44,1.59.43.76.81,1.46,1.22,2.13,6.38,10.38,4.12,20.4-1.71,29.95-3.1,5.07-8.38,7.35-14.24,7.36-5.81,0-11.63-.43-17.41-1.03-4.09-.43-7.37-2.75-10.22-5.68-2.12-2.19-3.57-4.68-3.37-7.78.48-7.56.97-15.13,1.68-22.68.43-4.6,2.91-8.24,6.36-11.23v-.02Zm16.35-13.52c-.43-1.16-.77-2.4-1.38-3.48-.11-.2-1.91.17-1.92.35-.15,2.07-.11,4.16-.12,6.25.8,0,1.97.3,2.31-.1.61-.71.72-1.85,1.1-3.02h.01Zm10.83,4.64c0-.81.14-1.32-.03-1.67-.34-.71-.73-1.73-1.32-1.9-.51-.15-1.83.66-1.87,1.13-.15,1.73.04,3.51.26,5.25.02.14,1.31.35,1.83.12.45-.19.75-.93.94-1.48.19-.57.16-1.21.18-1.44h0Zm-22.89,20.37c1.08,1.17,1.83,1.98,2.57,2.78.58-.93,1.61-1.86,1.61-2.78s-1.05-1.82-1.63-2.74c-.74.8-1.48,1.59-2.55,2.74Zm16.81,1.24c-.98-1.22-1.64-2.03-2.3-2.85-.56.97-1.5,1.92-1.55,2.92-.05.87.92,1.79,1.43,2.68.69-.79,1.38-1.58,2.41-2.76h.01Z"/>
    <path id="walnut" d="m177.86,65.33c-1.4-.34-2.44-.53-3.44-.86-3.81-1.28-5.39-4.06-4.81-8.01.77-5.22,3.91-8.76,8.01-11.65.99-.7,2.05-1.32,3.57-2.29-1.88-.71-3.31-1.22-4.72-1.78-9.18-3.59-11.15-14.66-3.79-21.27,4.41-3.96,13.77-4.84,18.6-1.44,2.02,1.43,3.26,1.07,5.33.04,3.48-1.74,7.27-3.42,11.08-3.88,9.33-1.13,12.39,6.9,11.14,14.12-.13.77-.48,1.5-.79,2.45,1.93.44,3.8.79,5.62,1.31,4.68,1.32,8.54,3.59,9.31,8.94.78,5.45-1.75,9.38-6.07,12.34-1.3.89-2.75,1.58-4.38,2.49.64.82,1.28,1.6,1.89,2.41,4.36,5.83,4.26,12.25-.56,16.13-1.64,1.32-3.85,2.34-5.92,2.63-4.01.56-8.1.51-12.16.71-.26.01-.59.08-.79-.04-3.31-2.08-5.89.37-8.8,1.25-3.59,1.08-7.3,2.34-10.98,2.41-8.69.17-12.47-6.68-8.27-14.26.29-.52.56-1.06.93-1.76h0Zm16.93-41.29c-4.96-4-10.43-5.36-16.85-2.23-3.65,1.78-4.5,4.63-4.83,8.09-.33,3.38,2.07,4.8,4.56,5.71,3.12,1.13,6.41,1.81,9.66,2.56,1.54.36,3.67.23,3.61,2.25-.04,1.21-1.37,2.66-2.49,3.5-2.47,1.84-5.43,3.08-7.73,5.09-2.18,1.91-4.19,4.28-5.51,6.84-1.32,2.55-.24,4.01,2.64,3.82,2.48-.17,4.91-1.17,7.37-1.78,1.66-.41,3.45-.9,4.36,1.15.84,1.88-.67,2.7-1.82,3.89-2.42,2.51-4.76,5.16-6.69,8.05-1.36,2.03-.34,4.01,2.05,4.69,1.33.37,2.93.75,4.15.35,3.57-1.18,7.21-2.42,10.45-4.28,2.41-1.38,4.28-2.32,6.63-.25.48.43,1.3.69,1.95.67,3.7-.13,7.44-.11,11.09-.63,4.07-.58,5.52-3.56,4.12-7.43-1.11-3.06-3.34-4.89-6.29-6.03-1.67-.64-3.47-1.34-3.25-3.61.22-2.28,2.09-2.44,3.86-2.87,2.38-.58,4.82-1.18,7.01-2.24,2.89-1.4,5.23-3.6,4.81-7.21-.42-3.58-3.5-4.43-6.33-5.12-3.08-.76-6.27-1.05-9.36-1.76-.98-.22-2.37-.99-2.56-1.76-.23-.96.46-2.23,1-3.24.3-.56,1.06-.92,1.67-1.26,2.1-1.14,2.65-2.87,2.27-5.14-.75-4.37-3.34-6.36-8.02-5.33-3.06.67-5.98,2.07-8.88,3.32-.99.43-1.73,1.4-2.66,2.19h.01Zm8.38,12.44c.87-1.76.73-3.56-1.08-4.65-1.81-1.08-3.76-1.95-5.72-2.7-.59-.22-1.44.25-2.17.4.22.78.2,1.81.7,2.28,1.2,1.13,2.65,1.99,4.02,2.97-.11.29-.15.57-.3.77-3.83,5.38-3.78,5.34.6,10.5.68.8.9,2.22.86,3.33-.05,1.38-.7,2.73-.89,4.12-.36,2.66-.53,5.33,2.53,6.81-.31.54-.71.92-.71,1.29.02,1.2.18,2.41.29,3.61,1.18-.28,2.67-.21,3.5-.91,3.85-3.23,3.51-6.58-.96-9.34,1.49-5.18,2.36-10.42-3.43-14.06,1.12-1.75,2.09-3.02,2.79-4.43h-.03Z"/>
    <path id="arcon" d="m5.27,45.18c-5.51-1.08-6.28-2.19-4-5.68-1.87-2.34-1.24-4.97-.81-7.55C2.47,20.04,10.63,14.38,21.43,11.45c.93-.25,1.86-.48,2.76-.71.69-6.26,1.62-7.79,4.7-7.78,3.04,0,4.47,2.47,4.78,8.41,2.54.68,5.15,1.42,7.79,2.06,9.39,2.26,14.72,8.96,18.55,17.14.89,1.91.85,4.28,1.11,6.45.26,2.21-.67,3.86-2.9,4.4-1.55.38-1.44,1.35-1.48,2.58-.37,10.56-4.19,19.73-11.34,27.49-2.87,3.12-6.51,4.25-10.61,3.25-4.79-1.18-9.69-2.15-14.24-3.98-10.74-4.34-16.04-12.65-15.17-24.6.02-.33-.07-.67-.1-.97h0Zm-2.26-5.69c6.17.42,11.88,1,17.59,1.14,4.22.1,8.48-.16,12.69-.62,6.92-.75,13.82-1.76,20.72-2.69,1.38-.19,2.08-.92,1.58-2.39-.42-1.25-.68-2.6-1.31-3.73-3.54-6.27-8.07-11.38-15.61-12.84-2.51-.49-4.95-1.33-7.47-1.78-8.2-1.47-15.03,1.82-21.33,6.54-1.06.79-1.83,2.21-2.32,3.49-1.59,4.16-2.98,8.4-4.54,12.88Zm6.1,5.97c1.08,9.3,4.56,16.74,13.77,20.08,3.8,1.37,7.81,2.17,11.68,3.36,3.21.98,5.75.04,7.77-2.45,4.32-5.32,6.73-11.54,8.27-18.12.38-1.63.26-3.37.39-5.29-14.14,2.37-27.79,3.58-41.88,2.42Zm12.75-22.26c-1.96.22-3.26,1.21-3.25,3.38.01,1.93,1.51,3.46,3.32,3.24,1.84-.23,3.03-1.25,3.14-2.97-.05-2.26-1.47-3.84-3.21-3.65Zm13.78,8.97c-.13-.79-1.05-1.88-1.8-2.05-1.73-.39-4.71,1.85-4.39,3.21.24,1.03,1.25,1.88,1.61,2.38,3.03,0,4.89-1.62,4.58-3.55h0Zm-25.92-.9c-.04,2.02,1.54,2.76,3.12,2.87,1.9.13,2.98-1.38,2.89-3.04-.05-1.06-1.2-2.06-1.86-3.08-2.27.81-4.11,1.02-4.16,3.24h0Zm25.28-6.74c0,.6,1.4,1.72,2.04,1.63.81-.12,1.78-1.12,2.07-1.95.15-.43-1.02-1.32-2.06-2.57-1.03,1.35-2.07,2.13-2.06,2.89h.01Zm13.75,6.71c-.72-.4-1.53-1.2-2.15-1.09-.71.13-1.25,1.1-1.87,1.71.6.6,1.19,1.68,1.81,1.69.75.02,1.52-.86,2.28-1.35l-.06-.96h0Z"/>
  </g>
</svg>